<?xml version="1.0" encoding="utf-8"?>
<!-- Generator: Adobe Illustrator 18.0.0, SVG Export Plug-In . SVG Version: 6.00 Build 0)  -->
<!DOCTYPE svg PUBLIC "-//W3C//DTD SVG 1.1//EN" "http://www.w3.org/Graphics/SVG/1.1/DTD/svg11.dtd">
<svg version="1.1" id="Layer_1" xmlns="http://www.w3.org/2000/svg" xmlns:xlink="http://www.w3.org/1999/xlink" x="0px" y="0px"
	 viewBox="288 216.2 64 47.5" enable-background="new 288 216.2 64 47.5" xml:space="preserve">
<g>
	<g>
		<path fill="#2F2F2F" d="M347.4,223h-13.9v-1.6c0-2.8-2.3-5.2-5.2-5.2h-16.7c-2.8,0-5.2,2.3-5.2,5.2v1.6h-13.9
			c-2.5,0-4.6,2-4.6,4.6v31.6c0,2.5,2,4.6,4.6,4.6h54.9c2.5,0,4.6-2,4.6-4.6v-31.6C352,225,350,223,347.4,223z M309,221.4
			c0-1.4,1.2-2.6,2.6-2.6h16.7c1.4,0,2.6,1.2,2.6,2.6v1.6H309V221.4z M349.5,259.2c0,1.1-0.9,2-2,2h-54.9c-1.1,0-2-0.9-2-2v-12.8
			l2.2,2.2c0.2,0.2,0.6,0.4,0.9,0.4h20v4.4c0,0.7,0.6,1.3,1.3,1.3h10.2c0.7,0,1.3-0.6,1.3-1.3V249h10.5c0.7,0,1.3-0.6,1.3-1.3
			c0-0.7-0.6-1.3-1.3-1.3h-42.7l-3.6-3.6v-15.3c0-1.1,0.9-2,2-2h54.9c1.1,0,2,0.9,2,2v15.2l-4,4.1c-0.5,0.5-0.5,1.3,0,1.8
			c0.2,0.2,0.6,0.4,0.9,0.4c0.3,0,0.7-0.1,0.9-0.4l2.2-2.2L349.5,259.2L349.5,259.2z M316.2,252.1V249h7.6v3.1H316.2z"/>
	</g>
</g>
<g>
	<g>
		<path fill="#2F2F2F" d="M341.8,246.4H341c-0.7,0-1.3,0.6-1.3,1.3c0,0.7,0.6,1.3,1.3,1.3h0.8c0.7,0,1.3-0.6,1.3-1.3
			C343.1,247,342.5,246.4,341.8,246.4z"/>
	</g>
</g>
</svg>
