<?xml version="1.0" encoding="utf-8"?>
<!-- Generator: Adobe Illustrator 18.0.0, SVG Export Plug-In . SVG Version: 6.00 Build 0)  -->
<!DOCTYPE svg PUBLIC "-//W3C//DTD SVG 1.1//EN" "http://www.w3.org/Graphics/SVG/1.1/DTD/svg11.dtd">
<svg version="1.1" id="Layer_1" xmlns="http://www.w3.org/2000/svg" xmlns:xlink="http://www.w3.org/1999/xlink" x="0px" y="0px"
	 viewBox="91.6 0 480 480" enable-background="new 91.6 0 480 480" xml:space="preserve">
<g>
	<g>
		<path fill="#FFC527" d="M501.5,70.1C456.4,25,395.9,0,331.6,0S206.8,25,161.7,70.1S91.6,175.7,91.6,240s25,124.8,70.1,169.9
			C206.8,455,267.3,480,331.6,480s124.8-25,169.9-70.1c45.1-45.1,70.1-105.6,70.1-169.9S546.6,115.2,501.5,70.1z M331.6,460.8
			c-121.9,0-220.8-98.9-220.8-220.8S209.7,19.2,331.6,19.2S552.4,118.1,552.4,240S453.5,460.8,331.6,460.8z"/>
	</g>
</g>
<g>
	<g>
		<path fill="#FFC527" d="M331.6,37.4C220.2,37.4,129,128.6,129,240s91.2,202.6,202.6,202.6S534.1,351.4,534.1,240
			S442.9,37.4,331.6,37.4z M494.8,323.5l-27.8-16.3c-4.8-2.9-10.6-1-13.4,3.8c-2.9,4.8-1,10.6,3.8,13.4l27.8,16.3
			c-14.4,21.1-32.6,40.3-53.8,53.8l-16.3-27.8c-2.9-4.8-8.6-5.8-13.4-3.8c-4.8,2.9-5.8,8.6-3.8,13.4l16.3,27.8
			c-22.1,11.5-47,18.2-73.9,20.2v-31.7c0-5.8-3.8-9.6-9.6-9.6c-5.8,0-9.6,3.8-9.6,9.6v31.7c-25.9-1-50.9-8.6-73.9-20.2l16.3-27.8
			c2.9-4.8,1-10.6-3.8-13.4c-4.8-2.9-10.6-1-13.4,3.8l-16.3,27.8c-21.1-14.4-40.3-32.6-53.8-53.8l27.8-16.3
			c4.8-2.9,5.8-8.6,3.8-13.4c-2.9-4.8-8.6-5.8-13.4-3.8l-27.8,16.3c-11.5-22.1-18.2-47-20.2-73.9H178c5.8,0,9.6-3.8,9.6-9.6
			c0-5.8-3.8-9.6-9.6-9.6h-31.7c1-25.9,8.6-50.9,20.2-73.9l27.8,16.3c1.9,1,2.9,1,4.8,1c2.9,0,6.7-1.9,8.6-4.8
			c2.9-4.8,1-10.6-3.8-13.4l-27.8-16.3c14.4-21.1,32.6-40.3,53.8-53.8l16.3,27.8c1.9,2.9,4.8,4.8,8.6,4.8c1.9,0,2.9,0,4.8-1
			c4.8-2.9,5.8-8.6,3.8-13.4l-16.3-27.8c22.1-11.5,47-18.2,73.9-20.2v31.7c0,5.8,3.8,9.6,9.6,9.6c5.8,0,9.6-3.8,9.6-9.6V55.7
			c25.9,1,50.9,8.6,73.9,20.2l-16.3,27.8c-2.9,4.8-1,10.6,3.8,13.4c1.9,1,2.9,1,4.8,1c2.9,0,6.7-1.9,8.6-4.8l16.3-27.8
			c21.1,14.4,40.3,32.6,53.8,53.8l-27.8,16.3c-4.8,2.9-5.8,8.6-3.8,13.4c1.9,2.9,4.8,4.8,8.6,4.8c1.9,0,2.9,0,4.8-1l27.8-16.3
			c11.5,22.1,18.2,47,20.2,73.9h-31.7c-5.8,0-9.6,3.8-9.6,9.6c0,5.8,3.8,9.6,9.6,9.6h31.7C513,275.5,506.3,300.5,494.8,323.5z"/>
	</g>
</g>
<g>
	<g>
		<path fill="#FFC527" d="M341.2,213.1v-61.4c0-5.8-3.8-9.6-9.6-9.6s-9.6,3.8-9.6,9.6v61.4c-10.6,3.8-19.2,14.4-19.2,26.9
			c0,6.7,2.9,13.4,6.7,18.2l-15.4,25.9c-2.9,4.8-1,10.6,3.8,13.4c1.9,1,2.9,1,4.8,1c2.9,0,6.7-1.9,8.6-4.8l15.4-25.9
			c1.9,0,2.9,0,4.8,0c15.4,0,27.8-12.5,27.8-27.8C359.4,227.5,351.7,217,341.2,213.1z M331.6,249.6c-4.8,0-9.6-3.8-9.6-9.6
			s3.8-9.6,9.6-9.6s9.6,3.8,9.6,9.6S336.4,249.6,331.6,249.6z"/>
	</g>
</g>
<g>
	<g>
		<path fill="#FFC527" d="M331.6,111.4c-5.8,0-9.6,3.8-9.6,9.6v3.8c0,5.8,3.8,9.6,9.6,9.6s9.6-3.8,9.6-9.6V121
			C341.2,115.2,337.3,111.4,331.6,111.4z"/>
	</g>
</g>
</svg>
