<?xml version="1.0" encoding="utf-8"?>
<!-- Generator: Adobe Illustrator 18.0.0, SVG Export Plug-In . SVG Version: 6.00 Build 0)  -->
<!DOCTYPE svg PUBLIC "-//W3C//DTD SVG 1.1//EN" "http://www.w3.org/Graphics/SVG/1.1/DTD/svg11.dtd">
<svg version="1.1" id="Layer_1" xmlns="http://www.w3.org/2000/svg" xmlns:xlink="http://www.w3.org/1999/xlink" x="0px" y="0px"
	 viewBox="295 215 50 50" enable-background="new 295 215 50 50" xml:space="preserve">
<g>
	<g>
		<path fill="#FFFFFF" d="M337.7,222.3c-4.7-4.7-11-7.3-17.7-7.3s-13,2.6-17.7,7.3c-4.7,4.7-7.3,11-7.3,17.7s2.6,13,7.3,17.7
			c4.7,4.7,11,7.3,17.7,7.3s13-2.6,17.7-7.3c4.7-4.7,7.3-11,7.3-17.7S342.4,227,337.7,222.3z M320,263c-12.7,0-23-10.3-23-23
			s10.3-23,23-23s23,10.3,23,23S332.7,263,320,263z"/>
	</g>
</g>
<g>
	<g>
		<path fill="#FFFFFF" d="M320,218.9c-11.6,0-21.1,9.5-21.1,21.1s9.5,21.1,21.1,21.1s21.1-9.5,21.1-21.1S331.6,218.9,320,218.9z
			 M337,248.7l-2.9-1.7c-0.5-0.3-1.1-0.1-1.4,0.4c-0.3,0.5-0.1,1.1,0.4,1.4l2.9,1.7c-1.5,2.2-3.4,4.2-5.6,5.6l-1.7-2.9
			c-0.3-0.5-0.9-0.6-1.4-0.4c-0.5,0.3-0.6,0.9-0.4,1.4l1.7,2.9c-2.3,1.2-4.9,1.9-7.7,2.1v-3.3c0-0.6-0.4-1-1-1c-0.6,0-1,0.4-1,1v3.3
			c-2.7-0.1-5.3-0.9-7.7-2.1l1.7-2.9c0.3-0.5,0.1-1.1-0.4-1.4c-0.5-0.3-1.1-0.1-1.4,0.4l-1.7,2.9c-2.2-1.5-4.2-3.4-5.6-5.6l2.9-1.7
			c0.5-0.3,0.6-0.9,0.4-1.4c-0.3-0.5-0.9-0.6-1.4-0.4l-2.9,1.7c-1.2-2.3-1.9-4.9-2.1-7.7h3.3c0.6,0,1-0.4,1-1s-0.4-1-1-1h-3.3
			c0.1-2.7,0.9-5.3,2.1-7.7l2.9,1.7c0.2,0.1,0.3,0.1,0.5,0.1c0.3,0,0.7-0.2,0.9-0.5c0.3-0.5,0.1-1.1-0.4-1.4l-2.9-1.7
			c1.5-2.2,3.4-4.2,5.6-5.6l1.7,2.9c0.2,0.3,0.5,0.5,0.9,0.5c0.2,0,0.3,0,0.5-0.1c0.5-0.3,0.6-0.9,0.4-1.4l-1.7-2.9
			c2.3-1.2,4.9-1.9,7.7-2.1v3.3c0,0.6,0.4,1,1,1s1-0.4,1-1v-3.3c2.7,0.1,5.3,0.9,7.7,2.1l-1.7,2.9c-0.3,0.5-0.1,1.1,0.4,1.4
			c0.2,0.1,0.3,0.1,0.5,0.1c0.3,0,0.7-0.2,0.9-0.5l1.7-2.9c2.2,1.5,4.2,3.4,5.6,5.6l-2.9,1.7c-0.5,0.3-0.6,0.9-0.4,1.4
			c0.2,0.3,0.5,0.5,0.9,0.5c0.2,0,0.3,0,0.5-0.1l2.9-1.7c1.2,2.3,1.9,4.9,2.1,7.7h-3.3c-0.6,0-1,0.4-1,1c0,0.6,0.4,1,1,1h3.3
			C338.9,243.7,338.2,246.3,337,248.7z"/>
	</g>
</g>
<g>
	<g>
		<path fill="#FFFFFF" d="M321,237.2v-6.4c0-0.6-0.4-1-1-1s-1,0.4-1,1v6.4c-1.1,0.4-2,1.5-2,2.8c0,0.7,0.3,1.4,0.7,1.9l-1.6,2.7
			c-0.3,0.5-0.1,1.1,0.4,1.4c0.2,0.1,0.3,0.1,0.5,0.1c0.3,0,0.7-0.2,0.9-0.5l1.6-2.7c0.2,0,0.3,0,0.5,0c1.6,0,2.9-1.3,2.9-2.9
			C322.9,238.7,322.1,237.6,321,237.2z M320,241c-0.5,0-1-0.4-1-1s0.4-1,1-1s1,0.4,1,1S320.5,241,320,241z"/>
	</g>
</g>
<g>
	<g>
		<path fill="#FFFFFF" d="M320,226.6c-0.6,0-1,0.4-1,1v0.4c0,0.6,0.4,1,1,1s1-0.4,1-1v-0.4C321,227,320.6,226.6,320,226.6z"/>
	</g>
</g>
</svg>
