<?xml version="1.0" encoding="utf-8"?>
<!-- Generator: Adobe Illustrator 18.0.0, SVG Export Plug-In . SVG Version: 6.00 Build 0)  -->
<!DOCTYPE svg PUBLIC "-//W3C//DTD SVG 1.1//EN" "http://www.w3.org/Graphics/SVG/1.1/DTD/svg11.dtd">
<svg version="1.1" id="Layer_1" xmlns="http://www.w3.org/2000/svg" xmlns:xlink="http://www.w3.org/1999/xlink" x="0px" y="0px"
	 viewBox="288 207.4 64 65.2" enable-background="new 288 207.4 64 65.2" xml:space="preserve">
<g>
	<g>
		<g>
			<path fill="#2F2F2F" d="M306,219h22.6c0.7,0,1.3-0.6,1.3-1.3c0-0.7-0.6-1.3-1.3-1.3H306c-0.7,0-1.3,0.6-1.3,1.3
				C304.7,218.4,305.3,219,306,219z"/>
			<path fill="#2F2F2F" d="M300.5,219h0.3c0.7,0,1.3-0.6,1.3-1.3c0-0.7-0.6-1.3-1.3-1.3h-0.3c-0.7,0-1.3,0.6-1.3,1.3
				C299.2,218.4,299.8,219,300.5,219z"/>
			<path fill="#2F2F2F" d="M300.5,224.2h28.1c0.7,0,1.3-0.6,1.3-1.3c0-0.7-0.6-1.3-1.3-1.3h-28.1c-0.7,0-1.3,0.6-1.3,1.3
				S299.8,224.2,300.5,224.2z"/>
			<path fill="#2F2F2F" d="M300.5,229.5h28.1c0.7,0,1.3-0.6,1.3-1.3c0-0.7-0.6-1.3-1.3-1.3h-28.1c-0.7,0-1.3,0.6-1.3,1.3
				C299.2,228.9,299.8,229.5,300.5,229.5z"/>
			<path fill="#2F2F2F" d="M313.9,232.2h-0.5c-0.7,0-1.3,0.6-1.3,1.3c0,0.7,0.6,1.3,1.3,1.3h0.5c0.7,0,1.3-0.6,1.3-1.3
				C315.2,232.7,314.6,232.2,313.9,232.2z"/>
			<path fill="#2F2F2F" d="M300.5,234.8h8.3c0.7,0,1.3-0.6,1.3-1.3c0-0.7-0.6-1.3-1.3-1.3h-8.3c-0.7,0-1.3,0.6-1.3,1.3
				C299.2,234.2,299.8,234.8,300.5,234.8z"/>
			<path fill="#2F2F2F" d="M351,212.2c-0.4-1.4-1.2-2.5-2.5-3.2c-2.5-1.5-5.7-0.6-7.2,1.9l-5.4,9.3v-11.5c0-0.7-0.6-1.3-1.3-1.3
				h-40.2c-0.7,0-1.3,0.6-1.3,1.3v46.4c0,0.3,0.1,0.7,0.4,0.9l10.2,10.2c0.2,0.2,0.6,0.4,0.9,0.4h30.1c0.7,0,1.3-0.6,1.3-1.3v-24
				l14.5-25.1C351.2,215,351.4,213.5,351,212.2z M303.3,262.1l-5.6-5.6h5.6V262.1z M333.4,263.9L333.4,263.9h-27.5v-8.8
				c0-0.7-0.6-1.3-1.3-1.3h-8.8V210h37.6v14.7l-4.3,7.4h-10.5c-0.7,0-1.3,0.6-1.3,1.3c0,0.7,0.6,1.3,1.3,1.3h9l-1.5,2.6h-25.6
				c-0.7,0-1.3,0.6-1.3,1.3c0,0.7,0.6,1.3,1.3,1.3h24l-1.5,2.6h-22.5c-0.7,0-1.3,0.6-1.3,1.3c0,0.7,0.6,1.3,1.3,1.3h21l-2.9,5
				c-0.1,0.2-0.2,0.4-0.2,0.6c0,0,0,0,0,0l-0.5,8.8c0,0.5,0.2,1,0.7,1.2c0.2,0.1,0.4,0.2,0.5,0.2c0,0,9.7,0,9.7,0
				c0.7,0,1.3-0.6,1.3-1.3s-0.6-1.3-1.3-1.3h-5.2l3.7-2.5c0,0,0,0,0,0c0.2-0.1,0.3-0.3,0.4-0.4l5.6-9.7L333.4,263.9L333.4,263.9z
				 M324.1,255l-3.4,2.2l0.2-4.1L324.1,255z M326.1,253.1l-2.3-1.3l-2.3-1.3l16.8-29.1l4.6,2.6L326.1,253.1z M344.2,221.7l-4.6-2.6
				l1.6-2.9l4.6,2.6L344.2,221.7z M348.2,214.9l-1,1.7l-4.6-2.6l1-1.7c0.7-1.3,2.3-1.7,3.6-1c0.6,0.4,1,0.9,1.2,1.6
				C348.6,213.5,348.5,214.3,348.2,214.9z"/>
		</g>
	</g>
</g>
</svg>
