<?xml version="1.0" encoding="utf-8"?>
<!-- Generator: Adobe Illustrator 18.0.0, SVG Export Plug-In . SVG Version: 6.00 Build 0)  -->
<!DOCTYPE svg PUBLIC "-//W3C//DTD SVG 1.1//EN" "http://www.w3.org/Graphics/SVG/1.1/DTD/svg11.dtd">
<svg version="1.1" id="Layer_1" xmlns="http://www.w3.org/2000/svg" xmlns:xlink="http://www.w3.org/1999/xlink" x="0px" y="0px"
	 viewBox="295 215.4 50 49.2" enable-background="new 295 215.4 50 49.2" xml:space="preserve">
<g>
	<g>
		<g>
			<path d="M306.4,241.2c-0.8,0-1.6,0.4-2,1.1l-1.2,2l-0.1-0.1v-2.5l2.6-1c0.9-0.3,1.4-1.2,1.4-2.1c0-0.7-0.4-1.4-0.9-1.8
				c-0.6-0.4-1.3-0.5-2-0.3l-0.3,0.1l0.3-0.7c0.3-0.7,0.5-1.4,0.5-2.1c0-1.3-1-2.3-2.3-2.3c-0.9,0-1.7,0.5-2.1,1.3l-2,4l-1.7,8.3
				l0,10.6l0.6,3.2H295v5.6h12.1V259h-2.4v-5.4l1.5-2.2l2.2-5.8c0.2-0.6,0.4-1.3,0.4-2C308.7,242.3,307.7,241.2,306.4,241.2z
				 M304.7,238c0.2-0.1,0.4,0,0.6,0.1s0.3,0.3,0.3,0.5c0,0.3-0.2,0.5-0.4,0.6l-2,0.8v-1.5L304.7,238z M305.5,260.6v2.4h-8.9v-2.4
				H305.5z M306.8,245l-2.1,5.5l-1.7,2.5v5.9h-4.2l-0.7-3.3v-10.3l1.6-7.9l2-3.9c0.1-0.2,0.4-0.4,0.6-0.4c0.4,0,0.7,0.3,0.7,0.7
				c0,0.5-0.1,1-0.3,1.4l-1.3,2.6v6.8l1.5,3.1l2.7-4.5c0.1-0.2,0.4-0.4,0.6-0.4c0.4,0,0.7,0.3,0.7,0.7
				C307.1,244,307,244.5,306.8,245z"/>
			<path d="M342.8,259l0.6-3.1l0-10.6l-1.6-8.2l-2.1-4.2c-0.4-0.8-1.2-1.3-2.1-1.3c-1.3,0-2.3,1-2.3,2.3c0,0.7,0.2,1.5,0.5,2.1
				l0.3,0.7l-0.3-0.1c-0.7-0.2-1.4-0.1-2,0.3c-0.6,0.4-0.9,1.1-0.9,1.8c0,0.9,0.6,1.7,1.4,2.1l2.6,1v2.5l-0.1,0.1l-1.2-2
				c-0.4-0.7-1.2-1.1-2-1.1c-1.3,0-2.4,1.1-2.4,2.4c0,0.7,0.1,1.3,0.4,2l2.1,5.6l1.6,2.4v5.4h-2.4v5.6H345V259H342.8z M334.9,239.2
				c-0.2-0.1-0.4-0.3-0.4-0.6c0-0.2,0.1-0.4,0.3-0.5s0.4-0.2,0.6-0.1l1.6,0.5v1.5L334.9,239.2z M335.2,250.5l-2.1-5.5
				c-0.2-0.5-0.3-0.9-0.3-1.4c0-0.4,0.3-0.7,0.7-0.7c0.3,0,0.5,0.1,0.6,0.4l2.7,4.5l1.5-3.1v-6.8l-1.3-2.6c-0.2-0.4-0.3-0.9-0.3-1.4
				c0-0.4,0.3-0.7,0.7-0.7c0.3,0,0.5,0.1,0.6,0.4l2,3.9l1.6,7.9v10.3l-0.7,3.3h-4.2v-5.9L335.2,250.5z M343.4,263h-8.9v-2.4h8.9V263
				z"/>
			<path d="M330.2,229.9h1.9v-4.8h-1.9c-0.3-1.1-0.7-2.1-1.3-3.1l1.3-1.3l-3.4-3.4l-1.3,1.3c-1-0.6-2-1-3.1-1.3v-1.9h-4.8v1.9
				c-1.1,0.3-2.1,0.7-3.1,1.3l-1.3-1.3l-3.4,3.4l1.3,1.3c-0.6,1-1,2-1.3,3.1h-1.9v4.8h1.9c0.3,1.1,0.7,2.1,1.3,3.1l-1.3,1.3l3.4,3.4
				l1.2-1.2c0,0.1,0,0.2,0,0.2c0,0.7,0.4,1.3,0.9,1.7c-0.1,0.2-0.1,0.5-0.1,0.7c0,1.1,0.9,2,2,2h5.6c1.1,0,2-0.9,2-2
				c0-0.3-0.1-0.5-0.1-0.7c0.6-0.4,0.9-1,0.9-1.7c0-0.1,0-0.1,0-0.2l1.2,1.2l3.4-3.4l-1.3-1.3C329.5,232,329.9,231,330.2,229.9z
				 M322.8,239.6h-5.6c-0.2,0-0.4-0.2-0.4-0.4c0-0.2,0.2-0.4,0.4-0.4h5.6c0.2,0,0.4,0.2,0.4,0.4
				C323.2,239.4,323.1,239.6,322.8,239.6z M323.6,237.2h-0.8h-5.6h-0.8c-0.2,0-0.4-0.2-0.4-0.4s0.2-0.4,0.4-0.4h7.3
				c0.2,0,0.4,0.2,0.4,0.4S323.9,237.2,323.6,237.2z M320.8,229.8c0.9-0.3,1.6-1.2,1.6-2.3c0-1.3-1.1-2.4-2.4-2.4s-2.4,1.1-2.4,2.4
				c0,1.1,0.7,1.9,1.6,2.3v5h-1.6v-2.1l-0.4-0.2c-1.7-1-2.8-2.9-2.8-4.9c0-3.1,2.5-5.6,5.6-5.6s5.6,2.5,5.6,5.6c0,2-1.1,3.9-2.8,4.9
				l-0.4,0.2v2.1h-1.6V229.8z M320,228.3c-0.4,0-0.8-0.4-0.8-0.8s0.4-0.8,0.8-0.8s0.8,0.4,0.8,0.8S320.5,228.3,320,228.3z
				 M328.7,229c-0.2,1.3-0.7,2.6-1.5,3.7l-0.4,0.6l1.2,1.2l-1.1,1.1l-1.2-1.2l-0.6,0.4c-0.1,0.1-0.3,0.2-0.5,0.3
				c-0.2-0.1-0.4-0.2-0.6-0.2v-1.3c2-1.3,3.2-3.6,3.2-6c0-4-3.3-7.3-7.3-7.3s-7.3,3.3-7.3,7.3c0,2.4,1.2,4.7,3.2,6v1.3
				c-0.2,0-0.4,0.1-0.6,0.2c-0.2-0.1-0.3-0.2-0.5-0.3l-0.6-0.4l-1.2,1.2l-1.1-1.1l1.2-1.2l-0.4-0.6c-0.8-1.1-1.3-2.3-1.5-3.7
				l-0.1-0.7h-1.6v-1.6h1.6l0.1-0.7c0.2-1.3,0.7-2.6,1.5-3.7l0.4-0.6l-1.2-1.2l1.1-1.1l1.2,1.2l0.6-0.4c1.1-0.8,2.3-1.3,3.7-1.5
				l0.7-0.1V217h1.6v1.6l0.7,0.1c1.3,0.2,2.6,0.7,3.7,1.5l0.6,0.4l1.2-1.2l1.1,1.1l-1.2,1.2l0.4,0.6c0.8,1.1,1.3,2.3,1.5,3.7
				l0.1,0.7h1.6v1.6h-1.6L328.7,229z"/>
			<rect x="319.2" y="242.8" width="1.6" height="1.6"/>
			<rect x="319.2" y="246" width="1.6" height="1.6"/>
			<rect x="319.2" y="249.3" width="1.6" height="1.6"/>
			<rect x="319.2" y="252.5" width="1.6" height="1.6"/>
		</g>
	</g>
</g>
</svg>
