<?xml version="1.0" encoding="utf-8"?>
<!-- Generator: Adobe Illustrator 18.0.0, SVG Export Plug-In . SVG Version: 6.00 Build 0)  -->
<!DOCTYPE svg PUBLIC "-//W3C//DTD SVG 1.1//EN" "http://www.w3.org/Graphics/SVG/1.1/DTD/svg11.dtd">
<svg version="1.1" id="Layer_1" xmlns="http://www.w3.org/2000/svg" xmlns:xlink="http://www.w3.org/1999/xlink" x="0px" y="0px"
	 viewBox="375 215 478.7 480" enable-background="new 375 215 478.7 480" xml:space="preserve">
<g>
	<g>
		<g>
			<path fill="#FFC527" d="M729.2,266.8c-21.1,0-38.4,17.3-38.4,38.4s17.3,38.4,38.4,38.4s38.4-17.3,38.4-38.4
				S750.4,266.8,729.2,266.8z M729.2,321.6c-8.6,0-16.3-7.7-16.3-16.3c0-8.6,7.7-16.3,16.3-16.3c8.6,0,16.3,7.7,16.3,16.3
				C745.6,313.9,738.8,321.6,729.2,321.6z"/>
			<path fill="#FFC527" d="M689.9,502c2.9,0,5.8-1,7.7-2.9l3.8-3.8c3.8-3.8,3.8-11.5,0-15.4c-3.8-3.8-11.5-3.8-15.4,0l-3.8,3.8
				c-3.8,3.8-3.8,11.5,0,15.4C684.1,501.1,687,502,689.9,502z"/>
			<path fill="#FFC527" d="M458.5,502c2.9,0,5.8-1,7.7-2.9l3.8-3.8c3.8-3.8,3.8-11.5,0-15.4c-3.8-3.8-11.5-3.8-15.4,0l-3.8,3.8
				c-3.8,3.8-3.8,11.5,0,15.4C453.7,501.1,456.6,502,458.5,502z"/>
			<path fill="#FFC527" d="M534.4,498.2c1.9,1.9,4.8,2.9,7.7,2.9s5.8-1,7.7-2.9c3.8-3.8,3.8-11.5,0-15.4l-3.8-3.8
				c-3.8-3.8-11.5-3.8-15.4,0s-3.8,11.5,0,15.4L534.4,498.2z"/>
			<path fill="#FFC527" d="M848.3,303.3l-29.8-11.5c-6.7-43.2-44.2-76.8-89.3-76.8c-45.1,0-82.6,33.6-89.3,76.8l-25.9,9.6
				l-110.4-42.2l0,0c-2.9-1-4.8-1-7.7,0l-114.2,43.2c-3.8,1.9-6.7,5.8-6.7,10.6v248.6l0,0v122.9c0,3.8,1.9,6.7,4.8,8.6
				c1.9,1,3.8,1.9,5.8,1.9c1,0,2.9,0,3.8-1l110.4-42.2L610.2,694c1,0,2.9,1,3.8,1c1,0,2.9,0,3.8-1l0,0l110.4-42.2L838.7,694
				c1,0,2.9,1,3.8,1c1.9,0,4.8-1,5.8-1.9c2.9-1.9,4.8-5.8,4.8-8.6V313.9C855,308.1,852.1,304.3,848.3,303.3z M489.2,632.6
				l-93.1,35.5V566.4l40.3-40.3c3.8-3.8,3.8-11.5,0-15.4c-3.8-3.8-11.5-3.8-15.4,0l-25,25v-215l93.1-35.5V632.6z M604.4,535.6
				l-25-25c-3.8-3.8-11.5-3.8-15.4,0c-3.8,3.8-3.8,11.5,0,15.4l40.3,40.3v101.8l-93.1-35.5V285.1l93.1,35.5V535.6L604.4,535.6z
				 M718.7,632.6l-93.1,35.5v-99.8l42.2-42.2c3.8-3.8,3.8-11.5,0-15.4c-3.8-3.8-11.5-3.8-15.4,0l-26.9,26.9v-217l14.4-5.8
				c7.7,46.1,65.3,130.6,77.8,149.8L718.7,632.6L718.7,632.6z M729.2,441.6c-25-37.4-68.2-107.5-68.2-137.3
				c0-37.4,30.7-68.2,68.2-68.2s68.2,30.7,68.2,68.2C797.4,334,754.2,405.1,729.2,441.6z M832.9,668.1l-93.1-35.5v-168
				c13.4-19.2,70.1-102.7,77.8-149.8l14.4,5.8L832.9,668.1L832.9,668.1z"/>
		</g>
	</g>
</g>
</svg>
