<?xml version="1.0" encoding="utf-8"?>
<!-- Generator: Adobe Illustrator 18.0.0, SVG Export Plug-In . SVG Version: 6.00 Build 0)  -->
<!DOCTYPE svg PUBLIC "-//W3C//DTD SVG 1.1//EN" "http://www.w3.org/Graphics/SVG/1.1/DTD/svg11.dtd">
<svg version="1.1" id="Layer_1" xmlns="http://www.w3.org/2000/svg" xmlns:xlink="http://www.w3.org/1999/xlink" x="0px" y="0px"
	 viewBox="348.9 216.4 532.2 481.1" enable-background="new 348.9 216.4 532.2 481.1" xml:space="preserve">
<g>
	<g>
		<g>
			<path fill="#FFC527" d="M869.4,243H539.4c-5.3-14.9-20.2-26.6-37.3-26.6h-60.7c-17,0-31.9,10.6-37.3,26.6h-43.6
				c-6.4,0-11.7,5.3-11.7,11.7v404.4c0,6.4,5.3,11.7,11.7,11.7h43.6c5.3,14.9,20.2,26.6,37.3,26.6h60.7c17,0,31.9-10.6,37.3-26.6
				h329.9c6.4,0,11.7-5.3,11.7-11.7V254.8C881.1,248.4,875.8,243,869.4,243z M401.1,647.5h-28.7v-380h28.7V647.5z M518.1,657.1
				c0,8.5-7.5,16-16,16h-60.7c-8.5,0-16-7.5-16-16V256.9c0-8.5,7.5-16,16-16h60.7c8.5,0,16,7.5,16,16V657.1L518.1,657.1z
				 M857.7,647.5H541.6v-380h316.1V647.5L857.7,647.5z"/>
			<path fill="#FFC527" d="M583.1,400.6h234.1c6.4,0,11.7-5.3,11.7-11.7V308c0-6.4-5.3-11.7-11.7-11.7H583.1
				c-6.4,0-11.7,5.3-11.7,11.7v80.9C571.4,395.2,576.7,400.6,583.1,400.6z M594.8,319.7h210.7v57.5H594.8V319.7z"/>
			<path fill="#FFC527" d="M583.1,617.7h234.1c6.4,0,11.7-5.3,11.7-11.7V441c0-6.4-5.3-11.7-11.7-11.7H583.1
				c-6.4,0-11.7,5.3-11.7,11.7v165C571.4,612.4,576.7,617.7,583.1,617.7z M770.4,452.7h35.1v31.9h-35.1V452.7z M770.4,508.1h35.1
				V540h-35.1V508.1z M770.4,562.3h35.1v31.9h-35.1V562.3z M711.9,452.7H747v31.9h-35.1V452.7z M711.9,508.1H747V540h-35.1V508.1z
				 M711.9,562.3H747v31.9h-35.1V562.3z M653.3,452.7h35.1v31.9h-35.1V452.7z M653.3,508.1h35.1V540h-35.1V508.1z M653.3,562.3h35.1
				v31.9h-35.1V562.3z M594.8,452.7h35.1v31.9h-35.1V452.7L594.8,452.7z M594.8,508.1h35.1V540h-35.1V508.1L594.8,508.1z
				 M594.8,562.3h35.1v31.9h-35.1V562.3L594.8,562.3z"/>
			<path fill="#FFC527" d="M486.2,403.8c-6.4,0-11.7,5.3-11.7,11.7v12.8c0,6.4,5.3,11.7,11.7,11.7s11.7-5.3,11.7-11.7v-12.8
				C497.9,409.1,492.6,403.8,486.2,403.8z"/>
			<path fill="#FFC527" d="M486.2,465.5c-6.4,0-11.7,5.3-11.7,11.7v124.5c0,6.4,5.3,11.7,11.7,11.7s11.7-5.3,11.7-11.7V477.2
				C497.9,470.8,492.6,465.5,486.2,465.5z"/>
		</g>
	</g>
</g>
</svg>
