<?xml version="1.0" encoding="utf-8"?>
<!-- Generator: Adobe Illustrator 18.0.0, SVG Export Plug-In . SVG Version: 6.00 Build 0)  -->
<!DOCTYPE svg PUBLIC "-//W3C//DTD SVG 1.1//EN" "http://www.w3.org/Graphics/SVG/1.1/DTD/svg11.dtd">
<svg version="1.1" id="Layer_1" xmlns="http://www.w3.org/2000/svg" xmlns:xlink="http://www.w3.org/1999/xlink" x="0px" y="0px"
	 viewBox="295 217.5 50 45.1" enable-background="new 295 217.5 50 45.1" xml:space="preserve">
<g>
	<g>
		<g>
			<path fill="#FFFFFF" d="M343.9,219.9h-31c-0.5-1.4-1.9-2.5-3.5-2.5h-5.7c-1.6,0-3,1-3.5,2.5h-4.1c-0.6,0-1.1,0.5-1.1,1.1V259
				c0,0.6,0.5,1.1,1.1,1.1h4.1c0.5,1.4,1.9,2.5,3.5,2.5h5.7c1.6,0,3-1,3.5-2.5h31c0.6,0,1.1-0.5,1.1-1.1V221
				C345,220.4,344.5,219.9,343.9,219.9z M299.9,257.9h-2.7v-35.7h2.7V257.9z M310.9,258.8c0,0.8-0.7,1.5-1.5,1.5h-5.7
				c-0.8,0-1.5-0.7-1.5-1.5v-37.6c0-0.8,0.7-1.5,1.5-1.5h5.7c0.8,0,1.5,0.7,1.5,1.5V258.8L310.9,258.8z M342.8,257.9h-29.7v-35.7
				h29.7L342.8,257.9L342.8,257.9z"/>
			<path fill="#FFFFFF" d="M317,234.7h22c0.6,0,1.1-0.5,1.1-1.1V226c0-0.6-0.5-1.1-1.1-1.1h-22c-0.6,0-1.1,0.5-1.1,1.1v7.6
				C315.9,234.2,316.4,234.7,317,234.7z M318.1,227.1h19.8v5.4h-19.8V227.1z"/>
			<path fill="#FFFFFF" d="M317,255.1h22c0.6,0,1.1-0.5,1.1-1.1v-15.5c0-0.6-0.5-1.1-1.1-1.1h-22c-0.6,0-1.1,0.5-1.1,1.1V254
				C315.9,254.6,316.4,255.1,317,255.1z M334.6,239.6h3.3v3h-3.3V239.6z M334.6,244.8h3.3v3h-3.3V244.8z M334.6,249.9h3.3v3h-3.3
				V249.9z M329.1,239.6h3.3v3h-3.3V239.6z M329.1,244.8h3.3v3h-3.3V244.8z M329.1,249.9h3.3v3h-3.3V249.9z M323.6,239.6h3.3v3h-3.3
				V239.6z M323.6,244.8h3.3v3h-3.3V244.8z M323.6,249.9h3.3v3h-3.3V249.9z M318.1,239.6h3.3v3h-3.3V239.6L318.1,239.6z
				 M318.1,244.8h3.3v3h-3.3V244.8L318.1,244.8z M318.1,249.9h3.3v3h-3.3V249.9L318.1,249.9z"/>
			<path fill="#FFFFFF" d="M307.9,235c-0.6,0-1.1,0.5-1.1,1.1v1.2c0,0.6,0.5,1.1,1.1,1.1s1.1-0.5,1.1-1.1v-1.2
				C309,235.5,308.5,235,307.9,235z"/>
			<path fill="#FFFFFF" d="M307.9,240.8c-0.6,0-1.1,0.5-1.1,1.1v11.7c0,0.6,0.5,1.1,1.1,1.1s1.1-0.5,1.1-1.1v-11.7
				C309,241.3,308.5,240.8,307.9,240.8z"/>
		</g>
	</g>
</g>
</svg>
