<?xml version="1.0" encoding="iso-8859-1"?>
<!-- Generator: Adobe Illustrator 17.1.0, SVG Export Plug-In . SVG Version: 6.00 Build 0)  -->
<!DOCTYPE svg PUBLIC "-//W3C//DTD SVG 1.1//EN" "http://www.w3.org/Graphics/SVG/1.1/DTD/svg11.dtd">
<svg version="1.1" id="Capa_1" xmlns="http://www.w3.org/2000/svg" xmlns:xlink="http://www.w3.org/1999/xlink" x="0px" y="0px"
	 viewBox="0 0 502.864 502.864" style="enable-background:new 0 0 502.864 502.864;" xml:space="preserve">
<g>
	<path d="M502.592,54.766c0.018-0.063,0.027-0.127,0.043-0.19c0.04-0.161,0.08-0.322,0.109-0.485
		c0.02-0.111,0.033-0.222,0.048-0.333c0.017-0.126,0.035-0.252,0.046-0.379c0.011-0.135,0.015-0.27,0.019-0.404
		c0.003-0.105,0.008-0.209,0.006-0.314c-0.002-0.142-0.01-0.283-0.02-0.424c-0.007-0.101-0.013-0.202-0.024-0.302
		c-0.015-0.135-0.036-0.269-0.058-0.402c-0.018-0.109-0.035-0.218-0.058-0.326c-0.025-0.119-0.055-0.236-0.086-0.353
		c-0.032-0.123-0.064-0.244-0.103-0.365c-0.032-0.1-0.068-0.198-0.104-0.296c-0.048-0.133-0.097-0.265-0.153-0.395
		c-0.038-0.088-0.079-0.173-0.12-0.259c-0.063-0.133-0.127-0.265-0.198-0.394c-0.048-0.087-0.101-0.172-0.152-0.257
		c-0.072-0.119-0.144-0.239-0.223-0.354c-0.069-0.102-0.144-0.199-0.219-0.297c-0.07-0.093-0.138-0.186-0.213-0.276
		c-0.104-0.126-0.216-0.245-0.329-0.364c-0.046-0.048-0.086-0.1-0.134-0.148l-0.077-0.077c-0.006-0.005-0.011-0.011-0.017-0.017
		L455.511,2.288c-0.006-0.006-0.012-0.012-0.018-0.018l-0.077-0.077c-0.047-0.047-0.098-0.086-0.145-0.131
		c-0.12-0.114-0.24-0.227-0.367-0.332c-0.088-0.073-0.18-0.14-0.271-0.209c-0.1-0.075-0.199-0.152-0.302-0.222
		c-0.114-0.078-0.231-0.148-0.349-0.219c-0.088-0.053-0.174-0.106-0.264-0.156c-0.127-0.07-0.257-0.133-0.387-0.195
		c-0.089-0.042-0.176-0.085-0.266-0.124c-0.128-0.055-0.257-0.103-0.387-0.15c-0.101-0.037-0.202-0.074-0.304-0.106
		c-0.119-0.038-0.239-0.07-0.359-0.101c-0.119-0.031-0.237-0.062-0.358-0.087c-0.107-0.022-0.214-0.04-0.322-0.057
		c-0.135-0.022-0.27-0.044-0.406-0.059c-0.099-0.011-0.198-0.017-0.297-0.023c-0.143-0.01-0.286-0.019-0.431-0.021
		c-0.102-0.001-0.205,0.003-0.307,0.006c-0.137,0.004-0.274,0.008-0.411,0.02c-0.124,0.01-0.246,0.028-0.37,0.045
		c-0.115,0.016-0.229,0.029-0.344,0.05c-0.157,0.029-0.313,0.067-0.468,0.105c-0.068,0.017-0.136,0.027-0.204,0.046
		c-0.033,0.009-0.065,0.019-0.097,0.028c-0.012,0.004-0.025,0.007-0.037,0.01c-48.418,13.52-86.744,32.51-113.913,56.448
		c-20.944,18.453-35.28,39.773-42.68,63.422c-14.238-3.415-29.578-0.531-41.112,8.996c-6.243,5.156-11,11.77-13.944,19.127
		c-0.551,0.005-1.11,0.066-1.668,0.199c-36.12,8.59-69.517,22.309-99.262,40.774c-26.182,16.253-49.675,36.246-69.826,59.423
		c-45.931,52.828-60.68,105.522-64.89,125.724c-2.175,10.437,1.031,21.172,8.577,28.718c4.339,4.339,9.816,7.293,15.835,8.544
		c2.161,0.45,4.333,0.673,6.49,0.673c6.065,0,12.005-1.76,17.197-5.161c7.039-4.612,11.86-11.688,13.574-19.922
		c1.234-5.912,31.923-144.292,193.337-178.94l32.304,32.304c4.079,4.079,5.743,10.136,4.344,15.807
		c-37.875,153.432-171.086,182.896-176.735,184.075c-8.237,1.715-15.313,6.536-19.925,13.575c-4.611,7.039-6.206,15.451-4.49,23.682
		c1.251,6.024,4.206,11.501,8.545,15.84c5.99,5.991,13.989,9.246,22.253,9.246c2.146,0,4.313-0.22,6.464-0.668
		c20.526-4.276,74.023-19.305,127.334-66.369c23.416-20.672,43.513-44.777,59.732-71.645c17.756-29.414,30.936-62.308,39.204-97.828
		c10.849-4.271,19.292-11.969,24.58-22.469c5.134-10.196,6.204-21.662,3.567-32.443c23.58-7.416,44.841-21.736,63.249-42.629
		c23.936-27.168,42.927-65.492,56.446-113.908c0.005-0.016,0.009-0.033,0.014-0.049C502.575,54.826,502.584,54.796,502.592,54.766z
		 M343.967,68.013c24.707-21.769,59.668-39.285,103.958-52.098l14.209,14.209l-35.152,35.152c-6.48-4.4-14.118-6.77-22.124-6.77
		c-10.551,0-20.47,4.109-27.931,11.57c-13.587,13.587-15.179,34.688-4.792,50.047l-35.16,35.16l-31.137-31.137
		C312.463,103.349,325.273,84.483,343.967,68.013z M387.534,115.33c-9.552-9.553-9.552-25.096,0-34.648
		c4.627-4.627,10.78-7.176,17.324-7.176c6.544,0,12.697,2.549,17.324,7.176s7.176,10.78,7.176,17.324
		c0,6.544-2.549,12.697-7.176,17.324C412.63,124.882,397.087,124.882,387.534,115.33z M47.658,384.214
		c-0.898,4.314-3.423,8.02-7.11,10.436c-3.687,2.415-8.093,3.251-12.411,2.35c-3.154-0.655-6.019-2.199-8.285-4.465
		c-3.957-3.957-5.639-9.583-4.499-15.051c3.969-19.052,17.911-68.779,61.525-118.942c40.429-46.5,92.918-78.16,156.068-94.169
		c-0.361,11.406,3.409,22.565,10.524,31.377C80.525,235.587,48.95,378.02,47.658,384.214z M365.893,237.139
		c-4.109,8.161-10.738,13.644-19.702,16.296c-2.617,0.774-4.607,2.909-5.196,5.575c-14.849,67.236-46.861,122.942-95.148,165.571
		c-50.623,44.692-101.11,58.897-120.467,62.93c-5.466,1.141-11.093-0.542-15.05-4.499c-2.266-2.266-3.81-5.131-4.466-8.29
		c-0.899-4.313-0.064-8.72,2.351-12.406c2.416-3.687,6.122-6.212,10.438-7.111c6.029-1.258,148.126-32.674,188.237-195.165
		c2.651-10.739-0.529-22.237-8.3-30.008l-41.164-41.164c-6.46-6.46-9.916-15.404-9.482-24.538
		c0.44-9.257,4.654-17.635,11.866-23.591c5.685-4.695,12.76-6.995,19.955-6.995c8.9,0,17.982,3.52,24.839,10.376l27.066,27.066
		c0.001,0.001,0.002,0.002,0.002,0.002s0.002,0.001,0.003,0.002l27.147,27.147C369.242,208.761,372.15,224.715,365.893,237.139z
		 M434.851,158.897c-16.47,18.694-35.336,31.504-56.132,38.128l-31.137-31.137l35.16-35.16c6.654,4.501,14.383,6.759,22.116,6.759
		c10.115,0,20.23-3.85,27.931-11.551c7.461-7.46,11.57-17.38,11.57-27.931c0-8.005-2.37-15.644-6.77-22.124l35.152-35.152
		l14.209,14.209C474.137,99.23,456.62,134.19,434.851,158.897z"/>
	<path d="M342.986,205.84c-2.929,2.929-2.928,7.678,0,10.607c2.139,2.138,2.982,5.286,2.201,8.215
		c-1.067,4.002,1.313,8.112,5.315,9.179c0.647,0.172,1.297,0.255,1.937,0.255c3.315,0,6.348-2.215,7.242-5.57
		c2.154-8.083-0.179-16.776-6.089-22.686C350.663,202.911,345.915,202.911,342.986,205.84z"/>
	<path d="M313.995,166.242c-2.929-2.929-7.678-2.929-10.606,0c-2.929,2.929-2.929,7.678,0,10.606l22.627,22.627
		c1.464,1.464,3.384,2.197,5.303,2.197s3.839-0.732,5.303-2.197c2.929-2.929,2.929-7.678,0-10.606L313.995,166.242z"/>
</g>
<g>
</g>
<g>
</g>
<g>
</g>
<g>
</g>
<g>
</g>
<g>
</g>
<g>
</g>
<g>
</g>
<g>
</g>
<g>
</g>
<g>
</g>
<g>
</g>
<g>
</g>
<g>
</g>
<g>
</g>
</svg>
