<?xml version="1.0" encoding="utf-8"?>
<!-- Generator: Adobe Illustrator 18.0.0, SVG Export Plug-In . SVG Version: 6.00 Build 0)  -->
<!DOCTYPE svg PUBLIC "-//W3C//DTD SVG 1.1//EN" "http://www.w3.org/Graphics/SVG/1.1/DTD/svg11.dtd">
<svg version="1.1" id="Layer_1" xmlns="http://www.w3.org/2000/svg" xmlns:xlink="http://www.w3.org/1999/xlink" x="0px" y="0px"
	 viewBox="288 208 64 64" enable-background="new 288 208 64 64" xml:space="preserve">
<g>
	<g>
		<g>
			<path fill="#2F2F2F" d="M342.4,208h-44.7c-5.3,0-9.6,4.3-9.6,9.6v44.7c0,5.3,4.3,9.6,9.6,9.6h44.7c5.3,0,9.6-4.3,9.6-9.6v-44.7
				C352,212.3,347.7,208,342.4,208z M349.5,262.4c0,3.9-3.2,7.1-7.1,7.1h-44.7c-3.9,0-7.1-3.2-7.1-7.1v-44.7c0-3.9,3.2-7.1,7.1-7.1
				h44.7c3.9,0,7.1,3.2,7.1,7.1V262.4z"/>
			<path fill="#2F2F2F" d="M340.1,215.6h-40.3c-2.3,0-4.2,1.9-4.2,4.2v40.3c0,2.3,1.9,4.2,4.2,4.2h40.3c2.3,0,4.2-1.9,4.2-4.2v-40.3
				C344.4,217.5,342.5,215.6,340.1,215.6z M341.8,260.1c0,0.9-0.7,1.7-1.7,1.7h-40.3c-0.9,0-1.7-0.7-1.7-1.7v-40.3
				c0-0.9,0.7-1.7,1.7-1.7h40.3c0.9,0,1.7,0.7,1.7,1.7V260.1z"/>
			<path fill="#2F2F2F" d="M310,225.4c0.2,0,0.5-0.1,0.7-0.2c1.1-0.7,2.3-1.3,3.5-1.7c0.7-0.2,1-1,0.8-1.6c-0.2-0.7-1-1-1.6-0.8
				c-1.4,0.5-2.8,1.2-4.1,2c-0.6,0.4-0.8,1.2-0.4,1.8C309.2,225.2,309.6,225.4,310,225.4z"/>
			<path fill="#2F2F2F" d="M320,220c-0.7,0-1.3,0.6-1.3,1.3c0,0.7,0.6,1.3,1.3,1.3c9.6,0,17.5,7.8,17.5,17.5
				c0,9.2-7.2,16.8-16.2,17.4v-1.7c0-0.7-0.6-1.3-1.3-1.3s-1.3,0.6-1.3,1.3v1.7c-9-0.7-16.2-8.2-16.2-17.4c0-2.4,0.5-4.7,1.4-6.9
				c0.3-0.6,0-1.4-0.7-1.7c-0.6-0.3-1.4,0-1.7,0.7c-1.1,2.5-1.6,5.2-1.6,7.9c0,11,9,20,20,20s20-9,20-20S331,220,320,220z"/>
			<path fill="#2F2F2F" d="M311.8,244c2.2,0,4-1.8,4-4c0-2.2-1.8-4-4-4s-4,1.8-4,4S309.6,244,311.8,244z M311.8,238.6
				c0.8,0,1.4,0.6,1.4,1.4s-0.6,1.4-1.4,1.4c-0.8,0-1.4-0.6-1.4-1.4S311,238.6,311.8,238.6z"/>
			<path fill="#2F2F2F" d="M332.2,240c0-2.2-1.8-4-4-4s-4,1.8-4,4s1.8,4,4,4S332.2,242.2,332.2,240z M326.8,240
				c0-0.8,0.6-1.4,1.4-1.4c0.8,0,1.4,0.6,1.4,1.4s-0.6,1.4-1.4,1.4C327.4,241.4,326.8,240.8,326.8,240z"/>
		</g>
	</g>
</g>
</svg>
