<?xml version="1.0" encoding="utf-8"?>
<!-- Generator: Adobe Illustrator 18.0.0, SVG Export Plug-In . SVG Version: 6.00 Build 0)  -->
<!DOCTYPE svg PUBLIC "-//W3C//DTD SVG 1.1//EN" "http://www.w3.org/Graphics/SVG/1.1/DTD/svg11.dtd">
<svg version="1.1" id="Capa_1" xmlns="http://www.w3.org/2000/svg" xmlns:xlink="http://www.w3.org/1999/xlink" x="0px" y="0px"
	 viewBox="295 215 50 50" enable-background="new 295 215 50 50" xml:space="preserve">
<g>
	<path fill="#FFFFFF" d="M337.7,222.3c-4.7-4.7-11-7.3-17.7-7.3c-6.7,0-13,2.6-17.7,7.3s-7.3,11-7.3,17.7s2.6,13,7.3,17.7
		s11,7.3,17.7,7.3c3.9,0,7.4-0.7,10.2-2.1c2.7-1.3,4.6-3.1,5.5-5.2c1-2.5,0.4-5-1.6-7l-0.1-0.1c0,0,0.1-0.1,0.1-0.1
		c1.4-1.5,1.4-3.5,0-5l-3.6-3.6c-0.7-0.7-1.5-1.1-2.4-1.1c-0.9,0-1.7,0.4-2.5,1.1l-1.9,1.9c-0.1-0.1-0.2-0.1-0.3-0.1
		c-0.2-0.1-0.4-0.2-0.6-0.3c-1.9-1.2-3.6-2.8-5.2-4.8c-0.7-0.9-1.2-1.7-1.6-2.4c0.5-0.4,0.9-0.9,1.3-1.3c0.2-0.2,0.4-0.4,0.5-0.5
		c1.5-1.5,1.5-3.5,0-5l-1.8-1.8c-0.2-0.2-0.4-0.4-0.6-0.6c-0.4-0.4-0.8-0.8-1.2-1.2c-0.7-0.7-1.5-1-2.4-1c-0.9,0-1.7,0.4-2.4,1
		c0,0,0,0,0,0l-2.2,2.2c-0.9,0.9-1.4,2-1.5,3.2c-0.2,2,0.4,3.8,0.9,4.9c1.1,2.9,2.6,5.5,5,8.4c2.9,3.4,6.3,6.1,10.2,8
		c1.5,0.7,3.5,1.6,5.8,1.7c0.1,0,0.3,0,0.4,0c1.6,0,2.9-0.6,4-1.7c0,0,0,0,0,0c0,0,0.1-0.1,0.1-0.1l0.1,0.1c1.3,1.3,1.7,2.8,1,4.4
		c-1.2,2.8-5.8,5.7-13.4,5.7c-12.4,0-22.5-10.1-22.5-22.5s10.1-22.5,22.5-22.5c12.4,0,22.5,10.1,22.5,22.5c0,2-0.3,4.1-0.8,6
		c-0.2,0.7,0.2,1.3,0.9,1.5s1.3-0.2,1.5-0.9c0.6-2.2,0.9-4.4,0.9-6.7C345,233.3,342.4,227,337.7,222.3z M330.3,250.9
		c-0.6,0.6-1.2,0.9-2.2,0.9c-0.1,0-0.2,0-0.3,0c-1.9-0.1-3.6-0.9-4.9-1.5c-3.6-1.7-6.8-4.2-9.4-7.4c-2.2-2.6-3.6-5-4.6-7.6
		c-0.6-1.6-0.8-2.8-0.7-3.9c0.1-0.7,0.3-1.2,0.8-1.7l2.2-2.2c0.2-0.2,0.4-0.4,0.7-0.4c0.3,0,0.5,0.2,0.7,0.3c0,0,0,0,0,0
		c0.4,0.4,0.8,0.7,1.2,1.1c0.2,0.2,0.4,0.4,0.6,0.6l1.8,1.8c0.5,0.5,0.5,0.9,0,1.5c-0.2,0.2-0.4,0.4-0.6,0.6c-0.5,0.5-1,1.1-1.6,1.6
		c0,0,0,0-0.1,0.1c-0.8,0.8-0.5,1.6-0.4,1.8c0,0,0,0.1,0,0.1c0.5,1.1,1.1,2.2,2.1,3.5l0,0c1.8,2.2,3.7,4,5.8,5.3
		c0.3,0.2,0.6,0.3,0.8,0.5c0.2,0.1,0.4,0.2,0.6,0.3c0,0,0.1,0,0.1,0.1c0.3,0.1,0.5,0.2,0.8,0.2c0.5,0,0.9-0.2,1.2-0.6l2.2-2.2
		c0.2-0.2,0.4-0.4,0.7-0.4c0.3,0,0.5,0.2,0.7,0.4c0,0,0,0,0,0l3.6,3.6c0.5,0.5,0.5,1,0,1.5l0,0c-0.2,0.3-0.5,0.5-0.8,0.8
		C331.1,250,330.7,250.4,330.3,250.9z"/>
</g>
</svg>
