<?xml version="1.0" encoding="utf-8"?>
<!-- Generator: Adobe Illustrator 19.2.1, SVG Export Plug-In . SVG Version: 6.00 Build 0)  -->
<svg version="1.1" xmlns="http://www.w3.org/2000/svg" xmlns:xlink="http://www.w3.org/1999/xlink" x="0px" y="0px"
	 viewBox="0 0 44 44" style="enable-background:new 0 0 44 44;" xml:space="preserve">
<style type="text/css">
	.st0{fill:#231F20;}
</style>
<g id="Layer_21">
	<g>
		<path d="M39,10h-2c-0.6,0-1,0.4-1,1s0.4,1,1,1h2c0.6,0,1-0.4,1-1S39.6,10,39,10z"/>
		<path d="M39,14h-2c-0.6,0-1,0.4-1,1s0.4,1,1,1h2c0.6,0,1-0.4,1-1S39.6,14,39,14z"/>
		<path d="M5,12h2c0.6,0,1-0.4,1-1s-0.4-1-1-1H5c-0.6,0-1,0.4-1,1S4.4,12,5,12z"/>
		<path d="M7,16c0.6,0,1-0.4,1-1s-0.4-1-1-1H5c-0.6,0-1,0.4-1,1s0.4,1,1,1H7z"/>
		<path d="M36.7,40.3C36.5,40.1,36.3,40,36,40h-2.2L28.2,8H39c0.5,0,0.9-0.3,1-0.8c0.1-0.5-0.1-0.9-0.6-1.1l-13-6
			C26.3,0,26.1,0,26,0h-8c-0.1,0-0.3,0-0.4,0.1l-13,6C4.2,6.3,3.9,6.8,4,7.2C4.1,7.7,4.5,8,5,8h10.8L11,35.1
			c-0.1,0.5,0.3,1.1,0.8,1.2c0.1,0,0.1,0,0.2,0c0.5,0,0.9-0.3,1-0.8l1.2-7.1l14.1,10.4c0.2,0.1,0.4,0.2,0.6,0.2
			c0.3,0,0.6-0.1,0.8-0.4c0.3-0.4,0.2-1.1-0.2-1.4l-5.8-4.3l6.1-4.5l2,11.6H14l5.7-4.2c0.4-0.3,0.5-1,0.2-1.4
			c-0.3-0.4-1-0.5-1.4-0.2L10.7,40H8c-0.3,0-0.5,0.1-0.7,0.3l-2,2c-0.4,0.4-0.4,1,0,1.4s1,0.4,1.4,0L8.4,42h27.2l1.7,1.7
			c0.2,0.2,0.5,0.3,0.7,0.3s0.5-0.1,0.7-0.3c0.4-0.4,0.4-1,0-1.4L36.7,40.3z M17.6,16.9l2-1.6c0.4-0.3,0.5-1,0.1-1.4s-1-0.5-1.4-0.1
			l-1.9,1.5l1-5.6l7.4,6.1c0.2,0.2,0.4,0.2,0.6,0.2c0.3,0,0.6-0.1,0.8-0.4c0.3-0.4,0.3-1.1-0.1-1.4l-2.6-2.1l2.9-2.4l1.1,6.3l-5.6,4
			L17.6,16.9z M16,6H9.6l8.7-4h7.6l8.7,4h-6.6l-0.2-1.2c-0.1-0.5-0.6-0.9-1.2-0.8c-0.5,0.1-0.9,0.6-0.8,1.2L25.9,6H21
			c-0.6,0-1,0.4-1,1s0.4,1,1,1h4.4L22,10.8l-4.1-3.4l0.4-2.3C18.4,4.6,18,4.1,17.5,4c-0.5-0.1-1.1,0.3-1.2,0.8L16.1,6
			C16.1,6,16,6,16,6z M22,31.7L15.7,27l3.9-2.8c0.4-0.3,0.6-0.9,0.2-1.4c-0.3-0.5-0.9-0.6-1.4-0.2l-3.6,2.6l1.2-7l10.4,7.4
			c0.2,0.1,0.4,0.2,0.6,0.2c0.3,0,0.6-0.1,0.8-0.4c0.3-0.4,0.2-1.1-0.2-1.4l-3.9-2.8l4.3-3.1l1.4,8L22,31.7z"/>
	</g>
</g>
<g id="Layer_20">
</g>
<g id="Layer_19">
</g>
<g id="Layer_18">
</g>
<g id="Layer_17">
</g>
<g id="Layer_16">
</g>
<g id="Layer_15">
</g>
<g id="Layer_14">
</g>
<g id="Layer_13">
</g>
<g id="Layer_12">
</g>
<g id="Layer_11">
</g>
<g id="Layer_10">
</g>
<g id="Layer_9">
</g>
<g id="Layer_8">
</g>
<g id="Layer_7">
</g>
<g id="Layer_6">
</g>
<g id="Layer_5">
</g>
<g id="trolley">
</g>
<g id="battery_x5F_charge">
</g>
<g id="diode">
</g>
</svg>
