<?xml version="1.0" encoding="utf-8"?>
<!-- Generator: Adobe Illustrator 18.0.0, SVG Export Plug-In . SVG Version: 6.00 Build 0)  -->
<!DOCTYPE svg PUBLIC "-//W3C//DTD SVG 1.1//EN" "http://www.w3.org/Graphics/SVG/1.1/DTD/svg11.dtd">
<svg version="1.1" id="Layer_1" xmlns="http://www.w3.org/2000/svg" xmlns:xlink="http://www.w3.org/1999/xlink" x="0px" y="0px"
	 viewBox="288 190.1 64 100.8" enable-background="new 288 190.1 64 100.8" xml:space="preserve">
<g id="Layer_21">
</g>
<g id="Layer_20">
</g>
<g id="Layer_19">
</g>
<g id="Layer_18">
</g>
<g id="Layer_17">
	<g>
		<path fill="#2F2F2F" d="M320,190.1c-17.6,0-32,14.4-32,32c0,10.1,4.3,19.2,11.9,24.9c4.1,3.2,6.2,7.3,6.4,13
			c-1.4,1.1-2.3,2.7-2.3,4.6c0,1.4,0.5,2.5,1.1,3.4c-0.7,0.9-1.1,2.1-1.1,3.4s0.5,2.5,1.1,3.4c-0.7,0.9-1.1,2.1-1.1,3.4
			c0,3.2,2.5,5.7,5.7,5.7h1.8l1.8,5.3c0.2,0.9,1.1,1.6,2.1,1.6h9.1c0.9,0,1.8-0.7,2.1-1.6l1.8-5.3h1.8c3.2,0,5.7-2.5,5.7-5.7
			c0-1.4-0.5-2.5-1.1-3.4c0.7-0.9,1.1-2.1,1.1-3.4s-0.5-2.5-1.1-3.4c0.7-0.9,1.1-2.1,1.1-3.4c0-3.2-2.5-5.7-5.7-5.7h-8v-23.1
			c0-1.4-0.9-2.3-2.3-2.3s-2.3,0.9-2.3,2.3V261c0,1.4,0.9,2.3,2.3,2.3h10.3c0.7,0,1.1,0.5,1.1,1.1c0,0.7-0.5,1.1-1.1,1.1
			c-1.4,0-2.3,0.9-2.3,2.3s0.9,2.3,2.3,2.3c0.7,0,1.1,0.5,1.1,1.1c0,0.7-0.5,1.1-1.1,1.1H320c-1.4,0-2.3,0.9-2.3,2.3
			c0,1.4,0.9,2.3,2.3,2.3h10.3c0.7,0,1.1,0.5,1.1,1.1s-0.5,1.1-1.1,1.1h-20.6c-0.7,0-1.1-0.5-1.1-1.1s0.5-1.1,1.1-1.1
			c1.4,0,2.3-0.9,2.3-2.3c0-1.4-0.9-2.3-2.3-2.3c-0.7,0-1.1-0.5-1.1-1.1c0-0.7,0.5-1.1,1.1-1.1h12.6c1.4,0,2.3-0.9,2.3-2.3
			s-0.9-2.3-2.3-2.3h-12.6c-0.7,0-1.1-0.5-1.1-1.1c0-0.7,0.5-1.1,1.1-1.1c1.4,0,2.3-0.9,2.3-2.3c0-0.9-0.5-1.6-1.1-2.1
			c-0.5-6.9-3.2-12.1-8.2-15.8c-6.4-4.8-10.1-12.6-10.1-21c0-15.1,12.3-27.4,27.4-27.4s27.4,12.3,27.4,27.4c0,8.5-3.7,16.5-10.1,21
			c-3.7,2.7-5.9,6.2-7.3,10.3c-0.5,1.1,0.2,2.5,1.6,2.7c1.1,0.5,2.5-0.2,2.7-1.6c0.9-3.2,2.7-5.9,5.7-8c7.5-5.3,11.9-14.6,11.9-24.5
			C352,204.5,337.6,190.1,320,190.1z M323,286.1H317l-0.7-2.3h7.3L323,286.1z"/>
		<path fill="#2F2F2F" d="M326.9,229c-1.4,0-2.3,0.9-2.3,2.3s0.9,2.3,2.3,2.3c5,0,9.1-4.1,9.1-9.1c0-5-4.1-9.1-9.1-9.1
			s-9.1,4.1-9.1,9.1c0,2.5-2.1,4.6-4.6,4.6s-4.6-2.1-4.6-4.6c0-2.5,2.1-4.6,4.6-4.6c1.4,0,2.3-0.9,2.3-2.3s-0.9-2.3-2.3-2.3
			c-5,0-9.1,4.1-9.1,9.1c0,5,4.1,9.1,9.1,9.1s9.1-4.1,9.1-9.1c0-2.5,2.1-4.6,4.6-4.6s4.6,2.1,4.6,4.6
			C331.4,226.9,329.4,229,326.9,229z"/>
	</g>
</g>
<g id="Layer_16">
</g>
<g id="Layer_15">
</g>
<g id="Layer_14">
</g>
<g id="Layer_13">
</g>
<g id="Layer_12">
</g>
<g id="Layer_11">
</g>
<g id="Layer_10">
</g>
<g id="Layer_9">
</g>
<g id="Layer_8">
</g>
<g id="Layer_7">
</g>
<g id="Layer_6">
</g>
<g id="Layer_5">
</g>
<g id="trolley">
</g>
<g id="battery_x5F_charge">
</g>
<g id="diode">
</g>
</svg>
