<?xml version="1.0" encoding="utf-8"?>
<!-- Generator: Adobe Illustrator 18.0.0, SVG Export Plug-In . SVG Version: 6.00 Build 0)  -->
<!DOCTYPE svg PUBLIC "-//W3C//DTD SVG 1.1//EN" "http://www.w3.org/Graphics/SVG/1.1/DTD/svg11.dtd">
<svg version="1.1" id="Capa_1" xmlns="http://www.w3.org/2000/svg" xmlns:xlink="http://www.w3.org/1999/xlink" x="0px" y="0px"
	 viewBox="295 209.8 50 60.4" enable-background="new 295 209.8 50 60.4" xml:space="preserve">
<g>
	<path fill="#FFFFFF" d="M327.9,227.5l-0.2-0.1c1.4-3,2.4-5.9,2.4-7.7c0-5.5-4.4-9.9-9.9-9.9c-5.4,0-9.9,4.5-9.9,9.9
		c0,0.6,0.1,1.3,0.3,2L295,228v42.2l17.1-6.7l15.8,6.2L345,263v-42.2L327.9,227.5z M313.3,228.5c2.4,5,5.4,10,5.9,10.9l1.1,1.7
		l1.1-1.7c0.5-0.8,3.1-5.1,5.3-9.6v36.8l-13.3-5.3L313.3,228.5L313.3,228.5z M320.3,212.3c4.1,0,7.4,3.3,7.4,7.5
		c0,3.2-4.6,11.8-7.4,16.5c-2.7-4.7-7.4-13.3-7.4-16.5C312.9,215.6,316.2,212.3,320.3,212.3z M297.5,229.7l13.3-5.3v36.8l-13.3,5.3
		V229.7z M342.5,261.3l-13.3,5.3v-36.8l13.3-5.3V261.3z"/>
	<path fill="#FFFFFF" d="M325.8,219.8c0-3-2.5-5.5-5.5-5.5s-5.5,2.5-5.5,5.5s2.5,5.5,5.5,5.5C323.3,225.3,325.8,222.8,325.8,219.8z
		 M317.3,219.8c0-1.7,1.4-3,3-3c1.7,0,3,1.4,3,3c0,1.7-1.4,3-3,3C318.6,222.8,317.3,221.5,317.3,219.8z"/>
</g>
</svg>
