<?xml version="1.0" encoding="utf-8"?>
<!-- Generator: Adobe Illustrator 18.0.0, SVG Export Plug-In . SVG Version: 6.00 Build 0)  -->
<!DOCTYPE svg PUBLIC "-//W3C//DTD SVG 1.1//EN" "http://www.w3.org/Graphics/SVG/1.1/DTD/svg11.dtd">
<svg version="1.1" id="Capa_1" xmlns="http://www.w3.org/2000/svg" xmlns:xlink="http://www.w3.org/1999/xlink" x="0px" y="0px"
	 viewBox="288 208 64 64" enable-background="new 288 208 64 64" xml:space="preserve">
<g>
	<path fill="#2F2F2F" d="M352,215C352,215,352,215,352,215C352,214.9,352,214.9,352,215c0-0.1,0-0.1,0-0.1c0,0,0,0,0,0
		c0,0,0,0,0-0.1c0,0,0,0,0,0c0,0,0,0,0-0.1c0,0,0,0,0,0c0,0,0,0,0-0.1c0,0,0,0,0,0c0,0,0,0,0,0c0,0,0,0,0,0c0,0,0,0,0,0
		c0,0,0,0,0-0.1c0,0,0,0,0,0c0,0,0,0,0-0.1c0,0,0,0,0,0c0,0,0,0,0,0c0,0,0,0,0,0c0,0,0,0,0,0c0,0,0,0,0,0c0,0,0,0,0,0l0,0
		c0,0,0,0,0,0l-5.7-5.7c0,0,0,0,0,0l0,0c0,0,0,0,0,0c0,0,0,0,0,0c0,0,0,0,0,0c0,0,0,0,0,0c0,0,0,0,0,0c0,0,0,0,0,0c0,0,0,0,0,0
		c0,0,0,0,0,0c0,0,0,0,0,0c0,0,0,0,0,0c0,0,0,0,0,0c0,0,0,0,0,0c0,0,0,0,0,0c0,0,0,0-0.1,0c0,0,0,0,0,0c0,0,0,0-0.1,0c0,0,0,0,0,0
		c0,0,0,0-0.1,0c0,0,0,0,0,0c0,0,0,0,0,0c0,0,0,0-0.1,0c0,0,0,0,0,0c0,0,0,0,0,0c0,0,0,0,0,0c-6.2,1.7-11,4.1-14.5,7.2
		c-2.7,2.3-4.5,5.1-5.4,8.1c-1.8-0.4-3.8-0.1-5.2,1.1c-0.8,0.7-1.4,1.5-1.8,2.4c-0.1,0-0.1,0-0.2,0c-4.6,1.1-8.8,2.8-12.6,5.2
		c-3.3,2.1-6.3,4.6-8.9,7.6c-5.8,6.7-7.7,13.4-8.3,16c-0.3,1.3,0.1,2.7,1.1,3.7c0.6,0.6,1.2,0.9,2,1.1c0.3,0.1,0.6,0.1,0.8,0.1
		c0.8,0,1.5-0.2,2.2-0.7c0.9-0.6,1.5-1.5,1.7-2.5c0.2-0.8,4.1-18.4,24.6-22.8l4.1,4.1c0.5,0.5,0.7,1.3,0.6,2
		c-4.8,19.5-21.8,23.3-22.5,23.4c-1,0.2-1.9,0.8-2.5,1.7c-0.6,0.9-0.8,2-0.6,3c0.2,0.8,0.5,1.5,1.1,2c0.8,0.8,1.8,1.2,2.8,1.2
		c0.3,0,0.5,0,0.8-0.1c2.6-0.5,9.4-2.5,16.2-8.4c3-2.6,5.5-5.7,7.6-9.1c2.3-3.7,3.9-7.9,5-12.5c1.4-0.5,2.5-1.5,3.1-2.9
		c0.7-1.3,0.8-2.8,0.5-4.1c3-0.9,5.7-2.8,8-5.4C347.8,226,350.2,221.2,352,215C352,215,352,215,352,215C352,215,352,215,352,215z
		 M331.8,216.7c3.1-2.8,7.6-5,13.2-6.6l1.8,1.8l-4.5,4.5c-0.8-0.6-1.8-0.9-2.8-0.9c-1.3,0-2.6,0.5-3.6,1.5c-1.7,1.7-1.9,4.4-0.6,6.4
		l-4.5,4.5l-4-4C327.8,221.2,329.4,218.8,331.8,216.7z M337.3,222.7c-1.2-1.2-1.2-3.2,0-4.4c0.6-0.6,1.4-0.9,2.2-0.9
		s1.6,0.3,2.2,0.9c0.6,0.6,0.9,1.4,0.9,2.2c0,0.8-0.3,1.6-0.9,2.2C340.5,223.9,338.5,223.9,337.3,222.7z M294.1,256.9
		c-0.1,0.5-0.4,1-0.9,1.3c-0.5,0.3-1,0.4-1.6,0.3c-0.4-0.1-0.8-0.3-1.1-0.6c-0.5-0.5-0.7-1.2-0.6-1.9c0.5-2.4,2.3-8.8,7.8-15.1
		c5.1-5.9,11.8-9.9,19.9-12c0,1.5,0.4,2.9,1.3,4C298.2,238,294.2,256.1,294.1,256.9z M334.6,238.2c-0.5,1-1.4,1.7-2.5,2.1
		c-0.3,0.1-0.6,0.4-0.7,0.7c-1.9,8.6-6,15.6-12.1,21.1c-6.4,5.7-12.9,7.5-15.3,8c-0.7,0.1-1.4-0.1-1.9-0.6c-0.3-0.3-0.5-0.7-0.6-1.1
		c-0.1-0.5,0-1.1,0.3-1.6c0.3-0.5,0.8-0.8,1.3-0.9c0.8-0.2,18.9-4.2,24-24.8c0.3-1.4-0.1-2.8-1.1-3.8l-5.2-5.2
		c-0.8-0.8-1.3-2-1.2-3.1c0.1-1.2,0.6-2.2,1.5-3c0.7-0.6,1.6-0.9,2.5-0.9c1.1,0,2.3,0.4,3.2,1.3l3.4,3.4c0,0,0,0,0,0s0,0,0,0
		l3.5,3.5C335,234.6,335.4,236.6,334.6,238.2z M343.3,228.2c-2.1,2.4-4.5,4-7.1,4.9l-4-4l4.5-4.5c0.8,0.6,1.8,0.9,2.8,0.9
		c1.3,0,2.6-0.5,3.6-1.5c0.9-0.9,1.5-2.2,1.5-3.6c0-1-0.3-2-0.9-2.8l4.5-4.5l1.8,1.8C348.3,220.6,346.1,225.1,343.3,228.2z"/>
	<path fill="#2F2F2F" d="M331.7,234.2c-0.4,0.4-0.4,1,0,1.3c0.3,0.3,0.4,0.7,0.3,1c-0.1,0.5,0.2,1,0.7,1.2c0.1,0,0.2,0,0.2,0
		c0.4,0,0.8-0.3,0.9-0.7c0.3-1,0-2.1-0.8-2.9C332.6,233.8,332,233.8,331.7,234.2z"/>
	<path fill="#2F2F2F" d="M328,229.2c-0.4-0.4-1-0.4-1.3,0c-0.4,0.4-0.4,1,0,1.3l2.9,2.9c0.2,0.2,0.4,0.3,0.7,0.3s0.5-0.1,0.7-0.3
		c0.4-0.4,0.4-1,0-1.3L328,229.2z"/>
</g>
</svg>
