<?xml version="1.0" encoding="utf-8"?>
<!-- Generator: Adobe Illustrator 18.0.0, SVG Export Plug-In . SVG Version: 6.00 Build 0)  -->
<!DOCTYPE svg PUBLIC "-//W3C//DTD SVG 1.1//EN" "http://www.w3.org/Graphics/SVG/1.1/DTD/svg11.dtd">
<svg version="1.1" id="Layer_1" xmlns="http://www.w3.org/2000/svg" xmlns:xlink="http://www.w3.org/1999/xlink" x="0px" y="0px"
	 viewBox="288 208 64 64" enable-background="new 288 208 64 64" xml:space="preserve">
<g id="Layer_21">
</g>
<g id="Layer_20">
</g>
<g id="Layer_19">
</g>
<g id="Layer_18">
</g>
<g id="Layer_17">
</g>
<g id="Layer_16">
	<g>
		<circle fill="#2F2F2F" cx="320" cy="240" r="1.5"/>
		<path fill="#2F2F2F" d="M347.6,208h-55.3c-2.5,0-4.4,1.9-4.4,4.4v55.3c0,2.5,1.9,4.4,4.4,4.4h55.3c2.5,0,4.4-1.9,4.4-4.4v-55.3
			C352,209.9,350.1,208,347.6,208z M349.1,267.6c0,0.9-0.6,1.5-1.5,1.5h-55.3c-0.9,0-1.5-0.6-1.5-1.5v-55.3c0-0.9,0.6-1.5,1.5-1.5
			h55.3c0.9,0,1.5,0.6,1.5,1.5V267.6z"/>
		<path fill="#2F2F2F" d="M326.3,219.1c-0.7-0.3-1.6,0.1-1.7,1c-0.3,0.7,0.1,1.6,1,1.7c7.9,2.5,13.4,9.9,13.4,18.2
			c0,9.9-7.7,18-17.5,18.9V256c0-0.9-0.6-1.5-1.5-1.5s-1.5,0.6-1.5,1.5v4.4c0,0.9,0.6,1.5,1.5,1.5c12.1,0,21.8-9.7,21.8-21.8
			C341.8,230.4,335.4,221.8,326.3,219.1z"/>
		<path fill="#2F2F2F" d="M314.6,258.2c-8-2.5-13.5-9.9-13.5-18.2c0-9.9,7.7-18,17.5-18.9v2.9c0,0.9,0.6,1.5,1.5,1.5
			s1.5-0.6,1.5-1.5v-4.4c0-0.9-0.6-1.5-1.5-1.5c-12.1,0-21.8,9.7-21.8,21.8c0,9.6,6.4,18.2,15.6,20.9c0.1,0,0.3,0,0.4,0
			c0.6,0,1.2-0.4,1.5-1C315.8,259.2,315.3,258.3,314.6,258.2z"/>
		<path fill="#2F2F2F" d="M305.5,240c0,2.5,1.9,4.4,4.4,4.4c2.5,0,4.4-1.9,4.4-4.4s-1.9-4.4-4.4-4.4
			C307.3,235.6,305.5,237.5,305.5,240z M311.3,240c0,0.9-0.6,1.5-1.5,1.5c-0.9,0-1.5-0.6-1.5-1.5s0.6-1.5,1.5-1.5
			C310.7,238.5,311.3,239.1,311.3,240z"/>
		<path fill="#2F2F2F" d="M334.5,240c0-2.5-1.9-4.4-4.4-4.4c-2.5,0-4.4,1.9-4.4,4.4s1.9,4.4,4.4,4.4
			C332.7,244.4,334.5,242.5,334.5,240z M328.7,240c0-0.9,0.6-1.5,1.5-1.5c0.9,0,1.5,0.6,1.5,1.5s-0.6,1.5-1.5,1.5
			C329.3,241.5,328.7,240.9,328.7,240z"/>
	</g>
</g>
<g id="Layer_15">
</g>
<g id="Layer_14">
</g>
<g id="Layer_13">
</g>
<g id="Layer_12">
</g>
<g id="Layer_11">
</g>
<g id="Layer_10">
</g>
<g id="Layer_9">
</g>
<g id="Layer_8">
</g>
<g id="Layer_7">
</g>
<g id="Layer_6">
</g>
<g id="Layer_5">
</g>
<g id="trolley">
</g>
<g id="battery_x5F_charge">
</g>
<g id="diode">
</g>
</svg>
