<?xml version="1.0" encoding="utf-8"?>
<!-- Generator: Adobe Illustrator 18.0.0, SVG Export Plug-In . SVG Version: 6.00 Build 0)  -->
<!DOCTYPE svg PUBLIC "-//W3C//DTD SVG 1.1//EN" "http://www.w3.org/Graphics/SVG/1.1/DTD/svg11.dtd">
<svg version="1.1" id="Layer_1" xmlns="http://www.w3.org/2000/svg" xmlns:xlink="http://www.w3.org/1999/xlink" x="0px" y="0px"
	 viewBox="288 200.9 64 78.1" enable-background="new 288 200.9 64 78.1" xml:space="preserve">
<g id="Layer_21">
	<g>
		<path fill="#2F2F2F" d="M350.2,218.7h-3.6c-1.1,0-1.8,0.7-1.8,1.8s0.7,1.8,1.8,1.8h3.6c1.1,0,1.8-0.7,1.8-1.8
			S351.3,218.7,350.2,218.7z"/>
		<path fill="#2F2F2F" d="M350.2,225.8h-3.6c-1.1,0-1.8,0.7-1.8,1.8s0.7,1.8,1.8,1.8h3.6c1.1,0,1.8-0.7,1.8-1.8
			S351.3,225.8,350.2,225.8z"/>
		<path fill="#2F2F2F" d="M289.8,222.2h3.6c1.1,0,1.8-0.7,1.8-1.8s-0.7-1.8-1.8-1.8h-3.6c-1.1,0-1.8,0.7-1.8,1.8
			S288.8,222.2,289.8,222.2z"/>
		<path fill="#2F2F2F" d="M293.4,229.3c1.1,0,1.8-0.7,1.8-1.8s-0.7-1.8-1.8-1.8h-3.6c-1.1,0-1.8,0.7-1.8,1.8s0.7,1.8,1.8,1.8H293.4z
			"/>
		<path fill="#2F2F2F" d="M346.1,272.5c-0.4-0.4-0.7-0.5-1.2-0.5H341l-9.9-56.8h19.2c0.9,0,1.6-0.5,1.8-1.4c0.2-0.9-0.2-1.6-1.1-2
			l-23.1-10.7c-0.2-0.2-0.5-0.2-0.7-0.2h-14.2c-0.2,0-0.5,0-0.7,0.2l-23.1,10.7c-0.7,0.4-1.2,1.2-1.1,2c0.2,0.9,0.9,1.4,1.8,1.4H309
			l-8.5,48.1c-0.2,0.9,0.5,2,1.4,2.1c0.2,0,0.2,0,0.4,0c0.9,0,1.6-0.5,1.8-1.4l2.1-12.6l25,18.5c0.4,0.2,0.7,0.4,1.1,0.4
			c0.5,0,1.1-0.2,1.4-0.7c0.5-0.7,0.4-2-0.4-2.5l-10.3-7.6l10.8-8l3.6,20.6h-31.6l10.1-7.5c0.7-0.5,0.9-1.8,0.4-2.5
			c-0.5-0.7-1.8-0.9-2.5-0.4L300,272h-4.8c-0.5,0-0.9,0.2-1.2,0.5l-3.6,3.6c-0.7,0.7-0.7,1.8,0,2.5c0.7,0.7,1.8,0.7,2.5,0l3-3h48.3
			l3,3c0.4,0.4,0.9,0.5,1.2,0.5c0.4,0,0.9-0.2,1.2-0.5c0.7-0.7,0.7-1.8,0-2.5L346.1,272.5z M312.2,230.9l3.6-2.8
			c0.7-0.5,0.9-1.8,0.2-2.5s-1.8-0.9-2.5-0.2l-3.4,2.7l1.8-9.9L325,229c0.4,0.4,0.7,0.4,1.1,0.4c0.5,0,1.1-0.2,1.4-0.7
			c0.5-0.7,0.5-2-0.2-2.5l-4.6-3.7l5.1-4.3l2,11.2l-9.9,7.1L312.2,230.9z M309.4,211.6H298l15.4-7.1H327l15.4,7.1h-11.7l-0.4-2.1
			c-0.2-0.9-1.1-1.6-2.1-1.4c-0.9,0.2-1.6,1.1-1.4,2.1l0.2,1.4h-8.7c-1.1,0-1.8,0.7-1.8,1.8s0.7,1.8,1.8,1.8h7.8l-6,5l-7.3-6
			l0.7-4.1c0.2-0.9-0.5-1.8-1.4-2c-0.9-0.2-2,0.5-2.1,1.4l-0.4,2.1H309.4z M320,257.2l-11.2-8.3l6.9-5c0.7-0.5,1.1-1.6,0.4-2.5
			c-0.5-0.9-1.6-1.1-2.5-0.4l-6.4,4.6l2.1-12.4l18.5,13.1c0.4,0.2,0.7,0.4,1.1,0.4c0.5,0,1.1-0.2,1.4-0.7c0.5-0.7,0.4-2-0.4-2.5
			l-6.9-5l7.6-5.5l2.5,14.2L320,257.2z"/>
	</g>
</g>
<g id="Layer_20">
</g>
<g id="Layer_19">
</g>
<g id="Layer_18">
</g>
<g id="Layer_17">
</g>
<g id="Layer_16">
</g>
<g id="Layer_15">
</g>
<g id="Layer_14">
</g>
<g id="Layer_13">
</g>
<g id="Layer_12">
</g>
<g id="Layer_11">
</g>
<g id="Layer_10">
</g>
<g id="Layer_9">
</g>
<g id="Layer_8">
</g>
<g id="Layer_7">
</g>
<g id="Layer_6">
</g>
<g id="Layer_5">
</g>
<g id="trolley">
</g>
<g id="battery_x5F_charge">
</g>
<g id="diode">
</g>
</svg>
