<?xml version="1.0" encoding="utf-8"?>
<!-- Generator: Adobe Illustrator 18.0.0, SVG Export Plug-In . SVG Version: 6.00 Build 0)  -->
<!DOCTYPE svg PUBLIC "-//W3C//DTD SVG 1.1//EN" "http://www.w3.org/Graphics/SVG/1.1/DTD/svg11.dtd">
<svg version="1.1" id="Capa_1" xmlns="http://www.w3.org/2000/svg" xmlns:xlink="http://www.w3.org/1999/xlink" x="0px" y="0px"
	 viewBox="175 175 50 50" enable-background="new 175 175 50 50" xml:space="preserve">
<g>
	<g>
		<g>
			<path fill="#FFFFFF" d="M217.7,182.3c-4.7-4.7-11-7.3-17.7-7.3s-13,2.6-17.7,7.3c-4.7,4.7-7.3,11-7.3,17.7s2.6,13,7.3,17.7
				c4.7,4.7,11,7.3,17.7,7.3s13-2.6,17.7-7.3c4.7-4.7,7.3-11,7.3-17.7S222.4,187,217.7,182.3z M200,220.8
				c-11.5,0-20.8-9.3-20.8-20.8s9.3-20.8,20.8-20.8s20.8,9.3,20.8,20.8C220.8,211.5,211.5,220.8,200,220.8z"/>
			<path fill="#FFFFFF" d="M192.4,213.3c-0.8-0.5-1.8-0.2-2.3,0.6c-0.5,0.8-0.2,1.8,0.6,2.3c0.3,0.2,0.6,0.2,0.8,0.2
				c0.6,0,1.1-0.3,1.5-0.8C193.4,214.8,193.2,213.7,192.4,213.3z"/>
			<path fill="#FFFFFF" d="M191.5,187c0.3,0,0.6-0.1,0.8-0.2c0.8-0.5,1.1-1.5,0.6-2.3c-0.5-0.8-1.5-1.1-2.3-0.6
				c-0.8,0.5-1.1,1.5-0.6,2.3C190.3,186.7,190.9,187,191.5,187z"/>
			<path fill="#FFFFFF" d="M184.4,193c0.3,0.2,0.6,0.2,0.8,0.2c0.6,0,1.2-0.3,1.5-0.8c0.5-0.8,0.2-1.8-0.6-2.3
				c-0.8-0.5-1.8-0.2-2.3,0.6C183.3,191.5,183.6,192.5,184.4,193z"/>
			<path fill="#FFFFFF" d="M200,184.7C200,184.7,200,184.7,200,184.7c0.9,0,1.7-0.8,1.7-1.7c0-0.9-0.8-1.7-1.7-1.7
				c-0.9,0-1.7,0.8-1.7,1.7C198.3,183.9,199,184.7,200,184.7z"/>
			<path fill="#FFFFFF" d="M184.4,207.1c-0.8,0.5-1.1,1.5-0.6,2.3c0.3,0.5,0.9,0.8,1.5,0.8c0.3,0,0.6-0.1,0.8-0.2
				c0.8-0.5,1.1-1.5,0.6-2.3C186.3,206.9,185.2,206.6,184.4,207.1z"/>
			<path fill="#FFFFFF" d="M184.7,200c0-0.9-0.8-1.7-1.7-1.7c-0.9,0-1.7,0.8-1.7,1.7c0,0.9,0.8,1.7,1.7,1.7h0
				C183.9,201.7,184.7,200.9,184.7,200z"/>
			<path fill="#FFFFFF" d="M200,215.3c-0.9,0-1.7,0.8-1.7,1.7c0,0.9,0.8,1.7,1.7,1.7c0.9,0,1.7-0.8,1.7-1.7
				C201.7,216.1,200.9,215.3,200,215.3z"/>
			<path fill="#FFFFFF" d="M215.6,207c-0.8-0.5-1.8-0.2-2.3,0.6c-0.5,0.8-0.2,1.8,0.6,2.3c0.3,0.2,0.6,0.2,0.8,0.2
				c0.6,0,1.1-0.3,1.5-0.8C216.7,208.5,216.4,207.5,215.6,207z"/>
			<path fill="#FFFFFF" d="M217,198.3c-0.9,0-1.7,0.8-1.7,1.7c0,0,0,0,0,0c0,0,0,0,0,0c0,0.9,0.8,1.7,1.7,1.7c0.9,0,1.7-0.8,1.7-1.7
				c0,0,0,0,0,0c0,0,0,0,0,0C218.7,199,217.9,198.3,217,198.3z"/>
			<path fill="#FFFFFF" d="M207.6,186.7c0.3,0.2,0.6,0.2,0.8,0.2c0.6,0,1.2-0.3,1.5-0.8c0.5-0.8,0.2-1.8-0.6-2.3
				c-0.8-0.5-1.8-0.2-2.3,0.6C206.6,185.2,206.8,186.3,207.6,186.7z"/>
			<path fill="#FFFFFF" d="M207.7,213.3c-0.8,0.5-1.1,1.5-0.6,2.3c0.3,0.5,0.9,0.8,1.5,0.8c0.3,0,0.6-0.1,0.8-0.2
				c0.8-0.5,1.1-1.5,0.6-2.3C209.5,213.1,208.5,212.8,207.7,213.3z"/>
			<path fill="#FFFFFF" d="M214.7,193.2c0.3,0,0.6-0.1,0.8-0.2c0.8-0.5,1.1-1.5,0.6-2.3c-0.5-0.8-1.5-1.1-2.3-0.6
				c-0.8,0.5-1.1,1.5-0.6,2.3C213.6,192.9,214.1,193.2,214.7,193.2z"/>
			<path fill="#FFFFFF" d="M210.6,201.2l-8.9-0.6l-0.9-13c0-0.4-0.4-0.8-0.8-0.8c-0.4,0-0.8,0.3-0.8,0.8l-0.9,12.7l-1.4-0.1
				c-0.2,0-0.4,0.1-0.5,0.2c-0.1,0.1-0.2,0.3-0.2,0.5v1.9c0,0.2,0.1,0.4,0.2,0.5c0.1,0.1,0.3,0.2,0.5,0.2c0,0,0,0,0,0l1.2-0.1
				l-0.1,1.3c0,0.2,0.1,0.5,0.2,0.6c0.2,0.2,0.4,0.3,0.6,0.3h2.3c0,0,0,0,0,0c0.5,0,0.9-0.4,0.9-0.9c0,0-0.1-1.6-0.1-1.6l8.7-0.6
				c0.4,0,0.6-0.3,0.6-0.7C211.2,201.5,211,201.2,210.6,201.2z"/>
		</g>
	</g>
</g>
</svg>
