<?xml version="1.0" encoding="utf-8"?>
<!-- Generator: Adobe Illustrator 18.0.0, SVG Export Plug-In . SVG Version: 6.00 Build 0)  -->
<!DOCTYPE svg PUBLIC "-//W3C//DTD SVG 1.1//EN" "http://www.w3.org/Graphics/SVG/1.1/DTD/svg11.dtd">
<svg version="1.1" id="Capa_1" xmlns="http://www.w3.org/2000/svg" xmlns:xlink="http://www.w3.org/1999/xlink" x="0px" y="0px"
	 viewBox="223.8 228.4 64 54.9" enable-background="new 223.8 228.4 64 54.9" xml:space="preserve">
<g>
	<g>
		<path fill="#2F2F2F" d="M263.8,266.1c0,0.6-0.2,1.2-0.7,1.6c-0.5,0.5-1,0.7-1.6,0.7h-11.4c-0.6,0-1.2-0.2-1.6-0.7
			c-0.5-0.5-0.7-1-0.7-1.6v-5.7h-24v17.1c0,1.6,0.6,2.9,1.7,4c1.1,1.1,2.5,1.7,4,1.7h52.6c1.6,0,2.9-0.6,4-1.7
			c1.1-1.1,1.7-2.5,1.7-4v-17.1h-24V266.1L263.8,266.1z"/>
		<rect x="251.2" y="260.4" fill="#2F2F2F" width="9.1" height="4.6"/>
		<path fill="#2F2F2F" d="M286.1,239.2c-1.1-1.1-2.5-1.7-4-1.7h-12.6v-5.7c0-1-0.3-1.8-1-2.4c-0.7-0.7-1.5-1-2.4-1h-20.6
			c-1,0-1.8,0.3-2.4,1c-0.7,0.7-1,1.5-1,2.4v5.7h-12.6c-1.6,0-2.9,0.6-4,1.7c-1.1,1.1-1.7,2.5-1.7,4V257h64v-13.7
			C287.8,241.7,287.3,240.3,286.1,239.2z M265,237.5h-18.3V233H265V237.5z"/>
	</g>
</g>
</svg>
