<?xml version="1.0" encoding="utf-8"?>
<!-- Generator: Adobe Illustrator 18.0.0, SVG Export Plug-In . SVG Version: 6.00 Build 0)  -->
<!DOCTYPE svg PUBLIC "-//W3C//DTD SVG 1.1//EN" "http://www.w3.org/Graphics/SVG/1.1/DTD/svg11.dtd">
<svg version="1.1" id="Layer_1" xmlns="http://www.w3.org/2000/svg" xmlns:xlink="http://www.w3.org/1999/xlink" x="0px" y="0px"
	 viewBox="295 224.8 50 30.4" enable-background="new 295 224.8 50 30.4" xml:space="preserve">
<g>
	<g>
		<path fill="#FFFFFF" d="M345,227.4c0-1.4-1.2-2.6-2.6-2.6c0,0,0,0,0,0l-44.8,0.1c-0.7,0-1.3,0.3-1.8,0.8c-0.5,0.5-0.7,1.1-0.7,1.8
			l0,25.2c0,0.7,0.3,1.3,0.8,1.8c0.5,0.5,1.1,0.7,1.8,0.7c0,0,0,0,0,0l44.8-0.1c1.4,0,2.6-1.2,2.6-2.6L345,227.4z M339.6,227.4
			L320,241l-19.6-13.6L339.6,227.4z M328.3,243.6l11.6,9l-39.8,0.1l11.7-9.1c0.6-0.4,0.7-1.2,0.2-1.8c-0.4-0.6-1.2-0.7-1.8-0.2
			l-12.6,9.8l0-22.7l21.7,15c0.2,0.2,0.5,0.2,0.7,0.2c0.3,0,0.5-0.1,0.7-0.2l21.7-15.1l0,22.8l-12.6-9.8c-0.6-0.4-1.4-0.3-1.8,0.2
			C327.6,242.3,327.7,243.1,328.3,243.6z"/>
	</g>
</g>
</svg>
