<?xml version="1.0" encoding="utf-8"?>
<!-- Generator: Adobe Illustrator 18.0.0, SVG Export Plug-In . SVG Version: 6.00 Build 0)  -->
<!DOCTYPE svg PUBLIC "-//W3C//DTD SVG 1.1//EN" "http://www.w3.org/Graphics/SVG/1.1/DTD/svg11.dtd">
<svg version="1.1" id="Layer_1" xmlns="http://www.w3.org/2000/svg" xmlns:xlink="http://www.w3.org/1999/xlink" x="0px" y="0px"
	 viewBox="295 215.3 50 49.4" enable-background="new 295 215.3 50 49.4" xml:space="preserve">
<g>
	<g>
		<g>
			<path fill="#FFFFFF" d="M312,248.8c-0.6,0-1.1,0.5-1.1,1.1v1.7c0,0.6,0.5,1.1,1.1,1.1s1.1-0.5,1.1-1.1v-1.7
				C313.1,249.3,312.6,248.8,312,248.8z"/>
			<path fill="#FFFFFF" d="M344.5,215.5c-0.3-0.2-0.7-0.3-1-0.1l-13.1,4.7c-0.7,0.3-1.5,0.4-2.2,0.5c-0.1,0-0.2-0.1-0.3-0.1
				c-0.1,0-0.2,0-0.3,0.1c-0.7-0.1-1.5-0.2-2.2-0.5l-10.2-3.6c-2.1-0.8-4.4-0.8-6.5,0l-13.1,4.7c-0.5,0.2-0.7,0.6-0.7,1.1v41.4
				c0,0.4,0.2,0.7,0.5,0.9c0.2,0.1,0.4,0.2,0.7,0.2c0.1,0,0.3,0,0.4-0.1l13.1-4.7c1.6-0.6,3.3-0.6,4.9,0l10.2,3.6
				c2.2,0.8,4.4,0.8,6.5,0l13.1-4.7c0.5-0.2,0.7-0.6,0.7-1.1v-41.4C344.9,216,344.8,215.7,344.5,215.5z M326.7,261.8
				c-0.5-0.1-0.9-0.2-1.3-0.3l-10.2-3.7c-2.2-0.8-4.4-0.8-6.5,0l-11.5,4.1v-39l12.3-4.4c0.4-0.2,0.9-0.3,1.3-0.3v26.6
				c0,0.6,0.5,1.1,1.1,1.1s1.1-0.5,1.1-1.1v-26.6c0.5,0.1,0.9,0.2,1.3,0.3l10.2,3.6c0.7,0.2,1.4,0.4,2.1,0.5V261.8L326.7,261.8z
				 M330.4,261.4c-0.5,0.2-0.9,0.3-1.4,0.3v-39.2c0.7-0.1,1.4-0.2,2.2-0.5l11.5-4.1v39l0,0L330.4,261.4z"/>
		</g>
	</g>
</g>
</svg>
