<?xml version="1.0" encoding="utf-8"?>
<!-- Generator: Adobe Illustrator 18.0.0, SVG Export Plug-In . SVG Version: 6.00 Build 0)  -->
<!DOCTYPE svg PUBLIC "-//W3C//DTD SVG 1.1//EN" "http://www.w3.org/Graphics/SVG/1.1/DTD/svg11.dtd">
<svg version="1.1" id="Capa_1" xmlns="http://www.w3.org/2000/svg" xmlns:xlink="http://www.w3.org/1999/xlink" x="0px" y="0px"
	 viewBox="197.3 82.9 64 81.9" enable-background="new 197.3 82.9 64 81.9" xml:space="preserve">
<g>
	<path fill="#2F2F2F" d="M254.9,88H242c0,0,0,0,0,0c-1.2-1.6-3-2.6-5.1-2.6h-3.3c-0.9-1.6-2.6-2.6-4.4-2.6s-3.5,1-4.4,2.6h-3.3
		c-2.1,0-3.9,1-5.1,2.6c0,0,0,0,0,0h-12.8c-3.5,0-6.4,2.9-6.4,6.4v64c0,3.5,2.9,6.4,6.4,6.4h51.2c3.5,0,6.4-2.9,6.4-6.4v-64
		C261.3,90.9,258.4,88,254.9,88z M217.7,91.8c0-2.1,1.7-3.8,3.8-3.8h4.1c0.5,0,1-0.3,1.2-0.9c0.4-1,1.3-1.7,2.4-1.7s2,0.7,2.4,1.7
		c0.2,0.5,0.7,0.9,1.2,0.9h4.1c2.1,0,3.8,1.7,3.8,3.8v3.8h-23V91.8z M258.7,158.4c0,2.1-1.7,3.8-3.8,3.8h-51.2
		c-2.1,0-3.8-1.7-3.8-3.8v-64c0-2.1,1.7-3.8,3.8-3.8h11.6c-0.1,0.4-0.1,0.8-0.1,1.3V97c0,0.7,0.6,1.3,1.3,1.3h25.6
		c0.7,0,1.3-0.6,1.3-1.3v-5.1c0-0.4,0-0.9-0.1-1.3h11.6c2.1,0,3.8,1.7,3.8,3.8V158.4z"/>
	<path fill="#2F2F2F" d="M254.9,93.1h-7.7c-0.7,0-1.3,0.6-1.3,1.3c0,0.7,0.6,1.3,1.3,1.3h6.4v44.8h-12.8c-2.1,0-3.8,1.7-3.8,3.8v7.7
		c0,0.7,0.6,1.3,1.3,1.3c0.7,0,1.3-0.6,1.3-1.3v-7.7c0-0.7,0.6-1.3,1.3-1.3h11l-14.1,14.1h-32.7V95.7h6.4c0.7,0,1.3-0.6,1.3-1.3
		c0-0.7-0.6-1.3-1.3-1.3h-7.7c-0.7,0-1.3,0.6-1.3,1.3v64c0,0.7,0.6,1.3,1.3,1.3h34.6c0,0,0,0,0,0c0,0,0.1,0,0.1,0c0,0,0,0,0.1,0
		c0,0,0,0,0.1,0c0,0,0,0,0.1,0c0,0,0,0,0.1,0c0,0,0,0,0.1,0c0,0,0,0,0,0c0,0,0,0,0.1,0c0,0,0,0,0,0c0,0,0,0,0.1,0c0,0,0,0,0,0
		c0,0,0.1,0,0.1-0.1c0,0,0,0,0,0c0,0,0.1-0.1,0.1-0.1l16.6-16.6c0,0,0,0,0,0c0,0,0.1-0.1,0.1-0.1c0,0,0,0,0,0c0,0,0.1-0.1,0.1-0.1
		c0,0,0,0,0,0c0,0,0-0.1,0.1-0.1c0,0,0,0,0,0c0-0.1,0-0.1,0-0.2c0,0,0,0,0,0c0-0.1,0-0.1,0-0.2c0,0,0,0,0,0c0,0,0,0,0,0V94.4
		C256.1,93.7,255.6,93.1,254.9,93.1z"/>
	<path fill="#2F2F2F" d="M229.3,88c-0.3,0-0.7,0.1-0.9,0.4c-0.2,0.2-0.4,0.6-0.4,0.9s0.1,0.7,0.4,0.9c0.2,0.2,0.6,0.4,0.9,0.4
		c0.3,0,0.7-0.1,0.9-0.4c0.2-0.2,0.4-0.6,0.4-0.9s-0.1-0.7-0.4-0.9C229.9,88.1,229.6,88,229.3,88z"/>
	<path fill="#2F2F2F" d="M234.4,107.2h12.8c0.7,0,1.3-0.6,1.3-1.3s-0.6-1.3-1.3-1.3h-12.8c-0.7,0-1.3,0.6-1.3,1.3
		S233.7,107.2,234.4,107.2z"/>
	<path fill="#2F2F2F" d="M224.1,112.3h23c0.7,0,1.3-0.6,1.3-1.3c0-0.7-0.6-1.3-1.3-1.3h-23c-0.7,0-1.3,0.6-1.3,1.3
		C222.9,111.7,223.4,112.3,224.1,112.3z"/>
	<path fill="#2F2F2F" d="M247.2,120h-35.8c-0.7,0-1.3,0.6-1.3,1.3s0.6,1.3,1.3,1.3h35.8c0.7,0,1.3-0.6,1.3-1.3S247.9,120,247.2,120z
		"/>
	<path fill="#2F2F2F" d="M247.2,125.1h-35.8c-0.7,0-1.3,0.6-1.3,1.3c0,0.7,0.6,1.3,1.3,1.3h35.8c0.7,0,1.3-0.6,1.3-1.3
		C248.4,125.7,247.9,125.1,247.2,125.1z"/>
	<path fill="#2F2F2F" d="M247.2,130.2h-35.8c-0.7,0-1.3,0.6-1.3,1.3c0,0.7,0.6,1.3,1.3,1.3h35.8c0.7,0,1.3-0.6,1.3-1.3
		C248.4,130.8,247.9,130.2,247.2,130.2z"/>
	<path fill="#2F2F2F" d="M248.4,136.6c0-0.7-0.6-1.3-1.3-1.3h-35.8c-0.7,0-1.3,0.6-1.3,1.3s0.6,1.3,1.3,1.3h35.8
		C247.9,137.9,248.4,137.3,248.4,136.6z"/>
	<path fill="#2F2F2F" d="M233.1,140.5h-10.2c-0.7,0-1.3,0.6-1.3,1.3s0.6,1.3,1.3,1.3h10.2c0.7,0,1.3-0.6,1.3-1.3
		S233.8,140.5,233.1,140.5z"/>
	<path fill="#2F2F2F" d="M233.1,145.6h-10.2c-0.7,0-1.3,0.6-1.3,1.3c0,0.7,0.6,1.3,1.3,1.3h10.2c0.7,0,1.3-0.6,1.3-1.3
		C234.4,146.2,233.8,145.6,233.1,145.6z"/>
	<path fill="#2F2F2F" d="M210.1,105.9c0,0.7,0.6,1.3,1.3,1.3h6.4c0.7,0,1.3-0.6,1.3-1.3s-0.6-1.3-1.3-1.3h-6.4
		C210.6,104.6,210.1,105.2,210.1,105.9z"/>
	<path fill="#2F2F2F" d="M207.5,146.2c0,3.2,2.6,5.8,5.8,5.8s5.8-2.6,5.8-5.8c0-3.2-2.6-5.8-5.8-5.8S207.5,143.1,207.5,146.2z
		 M216.4,146.2c0,1.8-1.4,3.2-3.2,3.2s-3.2-1.4-3.2-3.2c0-1.8,1.4-3.2,3.2-3.2S216.4,144.5,216.4,146.2z"/>
</g>
</svg>
