<?xml version="1.0" encoding="utf-8"?>
<!-- Generator: Adobe Illustrator 19.2.1, SVG Export Plug-In . SVG Version: 6.00 Build 0)  -->
<svg version="1.1" xmlns="http://www.w3.org/2000/svg" xmlns:xlink="http://www.w3.org/1999/xlink" x="0px" y="0px"
	 viewBox="0 0 44 44" style="enable-background:new 0 0 44 44;" xml:space="preserve">
<style type="text/css">
	.st0{fill:#231F20;}
</style>
<g id="Layer_21">
</g>
<g id="Layer_20">
</g>
<g id="Layer_19">
</g>
<g id="Layer_18">
</g>
<g id="Layer_17">
	<g>
		<path d="M22,0C14.3,0,8,6.3,8,14c0,4.4,1.9,8.4,5.2,10.9c1.8,1.4,2.7,3.2,2.8,5.7c-0.6,0.5-1,1.2-1,2c0,0.6,0.2,1.1,0.5,1.5
			c-0.3,0.4-0.5,0.9-0.5,1.5c0,0.6,0.2,1.1,0.5,1.5c-0.3,0.4-0.5,0.9-0.5,1.5c0,1.4,1.1,2.5,2.5,2.5h0.8l0.8,2.3
			c0.1,0.4,0.5,0.7,0.9,0.7h4c0.4,0,0.8-0.3,0.9-0.7l0.8-2.3h0.8c1.4,0,2.5-1.1,2.5-2.5c0-0.6-0.2-1.1-0.5-1.5
			c0.3-0.4,0.5-0.9,0.5-1.5c0-0.6-0.2-1.1-0.5-1.5c0.3-0.4,0.5-0.9,0.5-1.5c0-1.4-1.1-2.5-2.5-2.5H23V20c0-0.6-0.4-1-1-1s-1,0.4-1,1
			v11c0,0.6,0.4,1,1,1h4.5c0.3,0,0.5,0.2,0.5,0.5S26.8,33,26.5,33c-0.6,0-1,0.4-1,1s0.4,1,1,1c0.3,0,0.5,0.2,0.5,0.5
			S26.8,36,26.5,36H22c-0.6,0-1,0.4-1,1s0.4,1,1,1h4.5c0.3,0,0.5,0.2,0.5,0.5S26.8,39,26.5,39h-9c-0.3,0-0.5-0.2-0.5-0.5
			s0.2-0.5,0.5-0.5c0.6,0,1-0.4,1-1s-0.4-1-1-1c-0.3,0-0.5-0.2-0.5-0.5s0.2-0.5,0.5-0.5H23c0.6,0,1-0.4,1-1s-0.4-1-1-1h-5.5
			c-0.3,0-0.5-0.2-0.5-0.5s0.2-0.5,0.5-0.5c0.6,0,1-0.4,1-1c0-0.4-0.2-0.7-0.5-0.9c-0.2-3-1.4-5.3-3.6-6.9C11.6,21.1,10,17.7,10,14
			c0-6.6,5.4-12,12-12s12,5.4,12,12c0,3.7-1.6,7.2-4.4,9.2c-1.6,1.2-2.6,2.7-3.2,4.5c-0.2,0.5,0.1,1.1,0.7,1.2
			c0.5,0.2,1.1-0.1,1.2-0.7c0.4-1.4,1.2-2.6,2.5-3.5C34.1,22.4,36,18.3,36,14C36,6.3,29.7,0,22,0z M23.3,42h-2.6l-0.3-1h3.2L23.3,42
			z"/>
		<path d="M25,17c-0.6,0-1,0.4-1,1s0.4,1,1,1c2.2,0,4-1.8,4-4s-1.8-4-4-4s-4,1.8-4,4c0,1.1-0.9,2-2,2s-2-0.9-2-2s0.9-2,2-2
			c0.6,0,1-0.4,1-1s-0.4-1-1-1c-2.2,0-4,1.8-4,4s1.8,4,4,4s4-1.8,4-4c0-1.1,0.9-2,2-2s2,0.9,2,2S26.1,17,25,17z"/>
	</g>
</g>
<g id="Layer_16">
</g>
<g id="Layer_15">
</g>
<g id="Layer_14">
</g>
<g id="Layer_13">
</g>
<g id="Layer_12">
</g>
<g id="Layer_11">
</g>
<g id="Layer_10">
</g>
<g id="Layer_9">
</g>
<g id="Layer_8">
</g>
<g id="Layer_7">
</g>
<g id="Layer_6">
</g>
<g id="Layer_5">
</g>
<g id="trolley">
</g>
<g id="battery_x5F_charge">
</g>
<g id="diode">
</g>
</svg>
