<?xml version="1.0" encoding="utf-8"?>
<!-- Generator: Adobe Illustrator 18.0.0, SVG Export Plug-In . SVG Version: 6.00 Build 0)  -->
<!DOCTYPE svg PUBLIC "-//W3C//DTD SVG 1.1//EN" "http://www.w3.org/Graphics/SVG/1.1/DTD/svg11.dtd">
<svg version="1.1" id="Layer_1" xmlns="http://www.w3.org/2000/svg" xmlns:xlink="http://www.w3.org/1999/xlink" x="0px" y="0px"
	 viewBox="32 199.7 64 80.7" enable-background="new 32 199.7 64 80.7" xml:space="preserve">
<g>
	<g>
		<path fill="#2F2F2F" d="M92.1,199.7H54.6c-0.8,0-1.5,0.7-1.5,1.5v4.8h-4.8c-0.8,0-1.5,0.7-1.5,1.5v4.8H42c-0.8,0-1.5,0.7-1.5,1.5
			v4.7h-4.7c-0.8,0-1.5,0.7-1.5,1.5v53c0,0.8,0.7,1.5,1.5,1.5h37.6c0.8,0,1.5-0.7,1.5-1.5v-4.7h4.7c0.8,0,1.5-0.7,1.5-1.5v-4.8h4.8
			c0.8,0,1.5-0.7,1.5-1.5v-4.8h4.8c0.8,0,1.5-0.7,1.5-1.5v-53C93.6,200.3,93,199.7,92.1,199.7z M71.9,271.4H37.4v-50h34.6V271.4z
			 M78.1,265.2h-3.2v-45.3c0-0.8-0.7-1.5-1.5-1.5H43.5v-3.2h34.6V265.2z M84.4,258.9L84.4,258.9h-3.3v-45.2c0-0.8-0.7-1.5-1.5-1.5
			H49.8v-3.3h34.6V258.9z M90.6,252.7h-3.3v-45.2c0-0.8-0.7-1.5-1.5-1.5H56.1v-3.3h34.6L90.6,252.7L90.6,252.7z"/>
	</g>
</g>
<g>
	<g>
		<path fill="#2F2F2F" d="M67.2,257.4H42c-0.8,0-1.5,0.7-1.5,1.5s0.7,1.5,1.5,1.5h25.2c0.8,0,1.5-0.7,1.5-1.5
			C68.7,258.1,68.1,257.4,67.2,257.4z"/>
	</g>
</g>
<g>
	<g>
		<path fill="#2F2F2F" d="M67.2,263.2H42c-0.8,0-1.5,0.7-1.5,1.5s0.7,1.5,1.5,1.5h25.2c0.8,0,1.5-0.7,1.5-1.5
			C68.7,263.9,68.1,263.2,67.2,263.2z"/>
	</g>
</g>
<g>
	<g>
		<path fill="#2F2F2F" d="M67.2,226.5H42c-0.8,0-1.5,0.7-1.5,1.5s0.7,1.5,1.5,1.5h25.2c0.8,0,1.5-0.7,1.5-1.5
			C68.7,227.2,68.1,226.5,67.2,226.5z"/>
	</g>
</g>
<g>
	<g>
		<path fill="#2F2F2F" d="M67.2,232.3H42c-0.8,0-1.5,0.7-1.5,1.5s0.7,1.5,1.5,1.5h25.2c0.8,0,1.5-0.7,1.5-1.5
			C68.7,233,68.1,232.3,67.2,232.3z"/>
	</g>
</g>
<g>
	<g>
		<path fill="#2F2F2F" d="M67.2,238.1h-0.8c-0.8,0-1.5,0.7-1.5,1.5s0.7,1.5,1.5,1.5h0.8c0.8,0,1.5-0.7,1.5-1.5
			S68.1,238.1,67.2,238.1z"/>
	</g>
</g>
<g>
	<g>
		<path fill="#2F2F2F" d="M61.1,238.1H42c-0.8,0-1.5,0.7-1.5,1.5s0.7,1.5,1.5,1.5h19.1c0.8,0,1.5-0.7,1.5-1.5
			C62.6,238.8,62,238.1,61.1,238.1z"/>
	</g>
</g>
</svg>
