<?xml version="1.0" encoding="utf-8"?>
<!-- Generator: Adobe Illustrator 18.0.0, SVG Export Plug-In . SVG Version: 6.00 Build 0)  -->
<!DOCTYPE svg PUBLIC "-//W3C//DTD SVG 1.1//EN" "http://www.w3.org/Graphics/SVG/1.1/DTD/svg11.dtd">
<svg version="1.1" id="Layer_1" xmlns="http://www.w3.org/2000/svg" xmlns:xlink="http://www.w3.org/1999/xlink" x="0px" y="0px"
	 viewBox="295 223.8 50 32.3" enable-background="new 295 223.8 50 32.3" xml:space="preserve">
<g>
	<g>
		<path fill="#FFFFFF" d="M344,223.8h-48c-0.6,0-1,0.4-1,1v26.2c0,2.8,2.3,5.1,5.1,5.1h39.8c2.8,0,5.1-2.3,5.1-5.1v-26.2
			C345,224.3,344.6,223.8,344,223.8z M343,251.1c0,1.7-1.4,3.1-3.1,3.1h-39.8c-1.7,0-3.1-1.4-3.1-3.1V227l22.4,18.3
			c0.2,0.2,0.4,0.2,0.6,0.2c0.2,0,0.4-0.1,0.6-0.2l17.3-14.1c0.4-0.3,0.5-1,0.1-1.4c-0.3-0.4-1-0.5-1.4-0.1L320,243.3l-21.3-17.4
			H343V251.1z"/>
	</g>
</g>
<g>
	<g>
		<path fill="#FFFFFF" d="M340.9,227.5c-0.3-0.4-1-0.5-1.4-0.1l-0.3,0.2c-0.4,0.3-0.5,1-0.1,1.4c0.2,0.2,0.5,0.4,0.8,0.4
			c0.2,0,0.4-0.1,0.6-0.2l0.3-0.2C341.2,228.5,341.2,227.9,340.9,227.5z"/>
	</g>
</g>
</svg>
