<?xml version="1.0" encoding="utf-8"?>
<!-- Generator: Adobe Illustrator 18.0.0, SVG Export Plug-In . SVG Version: 6.00 Build 0)  -->
<!DOCTYPE svg PUBLIC "-//W3C//DTD SVG 1.1//EN" "http://www.w3.org/Graphics/SVG/1.1/DTD/svg11.dtd">
<svg version="1.1" id="Layer_1" xmlns="http://www.w3.org/2000/svg" xmlns:xlink="http://www.w3.org/1999/xlink" x="0px" y="0px"
	 viewBox="295 257.1 640 413.4" enable-background="new 295 257.1 640 413.4" xml:space="preserve">
<g>
	<g>
		<path fill="#FFC527" d="M922.2,257.1H307.8c-7.7,0-12.8,5.1-12.8,12.8v335.4c0,35.8,29.4,65.3,65.3,65.3h509.4
			c35.8,0,65.3-29.4,65.3-65.3V269.9C935,263.5,929.9,257.1,922.2,257.1z M909.4,606.5c0,21.8-17.9,39.7-39.7,39.7H360.3
			c-21.8,0-39.7-17.9-39.7-39.7V298l286.7,234.2c2.6,2.6,5.1,2.6,7.7,2.6s5.1-1.3,7.7-2.6l221.4-180.5c5.1-3.8,6.4-12.8,1.3-17.9
			c-3.8-5.1-12.8-6.4-17.9-1.3L615,506.7L342.4,284h567V606.5z"/>
	</g>
</g>
<g>
	<g>
		<path fill="#FFC527" d="M882.5,304.4c-3.8-5.1-12.8-6.4-17.9-1.3l-3.8,2.6c-5.1,3.8-6.4,12.8-1.3,17.9c2.6,2.6,6.4,5.1,10.2,5.1
			c2.6,0,5.1-1.3,7.7-2.6l3.8-2.6C886.4,317.2,886.4,309.6,882.5,304.4z"/>
	</g>
</g>
</svg>
