<?xml version="1.0" encoding="utf-8"?>
<!-- Generator: Adobe Illustrator 18.0.0, SVG Export Plug-In . SVG Version: 6.00 Build 0)  -->
<!DOCTYPE svg PUBLIC "-//W3C//DTD SVG 1.1//EN" "http://www.w3.org/Graphics/SVG/1.1/DTD/svg11.dtd">
<svg version="1.1" id="Layer_1" xmlns="http://www.w3.org/2000/svg" xmlns:xlink="http://www.w3.org/1999/xlink" x="0px" y="0px"
	 viewBox="295 215 50 50" enable-background="new 295 215 50 50" xml:space="preserve">
<g>
	<g>
		<g>
			<path fill="#FFFFFF" d="M331.9,220.4c-2.2,0-4,1.8-4,4c0,2.2,1.8,4,4,4s4-1.8,4-4C335.9,222.2,334.1,220.4,331.9,220.4z
				 M331.9,226.1c-0.9,0-1.7-0.8-1.7-1.7c0-0.9,0.8-1.7,1.7-1.7s1.7,0.8,1.7,1.7C333.6,225.3,332.9,226.1,331.9,226.1z"/>
			<path fill="#FFFFFF" d="M327.8,244.9c0.3,0,0.6-0.1,0.8-0.3l0.4-0.4c0.4-0.4,0.4-1.2,0-1.6c-0.4-0.4-1.2-0.4-1.6,0l-0.4,0.4
				c-0.4,0.4-0.4,1.2,0,1.6C327.2,244.8,327.5,244.9,327.8,244.9z"/>
			<path fill="#FFFFFF" d="M303.7,244.9c0.3,0,0.6-0.1,0.8-0.3l0.4-0.4c0.4-0.4,0.4-1.2,0-1.6c-0.4-0.4-1.2-0.4-1.6,0l-0.4,0.4
				c-0.4,0.4-0.4,1.2,0,1.6C303.2,244.8,303.5,244.9,303.7,244.9z"/>
			<path fill="#FFFFFF" d="M311.6,244.5c0.2,0.2,0.5,0.3,0.8,0.3c0.3,0,0.6-0.1,0.8-0.3c0.4-0.4,0.4-1.2,0-1.6l-0.4-0.4
				c-0.4-0.4-1.2-0.4-1.6,0c-0.4,0.4-0.4,1.2,0,1.6L311.6,244.5z"/>
			<path fill="#FFFFFF" d="M344.3,224.2l-3.1-1.2c-0.7-4.5-4.6-8-9.3-8s-8.6,3.5-9.3,8l-2.7,1l-11.5-4.4c0,0,0,0,0,0
				c-0.3-0.1-0.5-0.1-0.8,0l-11.9,4.5c-0.4,0.2-0.7,0.6-0.7,1.1v25.9c0,0,0,0,0,0v12.8c0,0.4,0.2,0.7,0.5,0.9
				c0.2,0.1,0.4,0.2,0.6,0.2c0.1,0,0.3,0,0.4-0.1l11.5-4.4l11.5,4.4c0.1,0,0.3,0.1,0.4,0.1c0.1,0,0.3,0,0.4-0.1c0,0,0,0,0,0
				l11.5-4.4l11.5,4.4c0.1,0,0.3,0.1,0.4,0.1c0.2,0,0.5-0.1,0.6-0.2c0.3-0.2,0.5-0.6,0.5-0.9v-38.6
				C345,224.7,344.7,224.3,344.3,224.2z M306.9,258.5l-9.7,3.7v-10.6l4.2-4.2c0.4-0.4,0.4-1.2,0-1.6c-0.4-0.4-1.2-0.4-1.6,0
				l-2.6,2.6V226l9.7-3.7V258.5z M318.9,248.4l-2.6-2.6c-0.4-0.4-1.2-0.4-1.6,0c-0.4,0.4-0.4,1.2,0,1.6l4.2,4.2v10.6l-9.7-3.7v-36.2
				l9.7,3.7V248.4L318.9,248.4z M330.8,258.5l-9.7,3.7v-10.4l4.4-4.4c0.4-0.4,0.4-1.2,0-1.6c-0.4-0.4-1.2-0.4-1.6,0l-2.8,2.8V226
				l1.5-0.6c0.8,4.8,6.8,13.6,8.1,15.6L330.8,258.5L330.8,258.5z M331.9,238.6c-2.6-3.9-7.1-11.2-7.1-14.3c0-3.9,3.2-7.1,7.1-7.1
				c3.9,0,7.1,3.2,7.1,7.1C339,227.4,334.5,234.8,331.9,238.6z M342.7,262.2l-9.7-3.7V241c1.4-2,7.3-10.7,8.1-15.6l1.5,0.6
				L342.7,262.2L342.7,262.2z"/>
		</g>
	</g>
</g>
</svg>
