<?xml version="1.0" encoding="utf-8"?>
<!-- Generator: Adobe Illustrator 18.0.0, SVG Export Plug-In . SVG Version: 6.00 Build 0)  -->
<!DOCTYPE svg PUBLIC "-//W3C//DTD SVG 1.1//EN" "http://www.w3.org/Graphics/SVG/1.1/DTD/svg11.dtd">
<svg version="1.1" id="Capa_1" xmlns="http://www.w3.org/2000/svg" xmlns:xlink="http://www.w3.org/1999/xlink" x="0px" y="0px"
	 viewBox="300 216.3 40 47.3" enable-background="new 300 216.3 40 47.3" xml:space="preserve">
<g>
	<path d="M338.5,262.3v-45.9h-23.6v14.8h-13.3v31.1H300v1.4h1.5h13.3h1.4h22.2h1.5v-1.4H338.5z M316.3,217.7h20.8v38.6h-20.8v-25.2
		V217.7z M314.9,232.5v23.8h-11.9v-23.8H314.9z M302.9,262.3v-4.5h11.9v4.5H302.9z M316.3,262.3v-4.5h20.8v4.5H316.3z"/>
	<rect x="331.9" y="252.6" width="3" height="1.4"/>
	<rect x="327.4" y="252.6" width="3" height="1.4"/>
	<rect x="323" y="252.6" width="3" height="1.4"/>
	<rect x="318.5" y="252.6" width="3" height="1.4"/>
	<rect x="331.9" y="249.7" width="3" height="1.4"/>
	<rect x="327.4" y="249.7" width="3" height="1.4"/>
	<rect x="323" y="249.7" width="3" height="1.4"/>
	<rect x="318.5" y="249.7" width="3" height="1.4"/>
	<rect x="331.9" y="246.7" width="3" height="1.4"/>
	<rect x="327.4" y="246.7" width="3" height="1.4"/>
	<rect x="323" y="246.7" width="3" height="1.4"/>
	<rect x="318.5" y="246.7" width="3" height="1.4"/>
	<rect x="331.9" y="243.8" width="3" height="1.4"/>
	<rect x="327.4" y="243.8" width="3" height="1.4"/>
	<rect x="323" y="243.8" width="3" height="1.4"/>
	<rect x="318.5" y="243.8" width="3" height="1.4"/>
	<rect x="331.9" y="240.8" width="3" height="1.4"/>
	<rect x="327.4" y="240.8" width="3" height="1.4"/>
	<rect x="323" y="240.8" width="3" height="1.4"/>
	<rect x="318.5" y="240.8" width="3" height="1.4"/>
	<rect x="331.9" y="237.8" width="3" height="1.4"/>
	<rect x="327.4" y="237.8" width="3" height="1.4"/>
	<rect x="323" y="237.8" width="3" height="1.4"/>
	<rect x="318.5" y="237.8" width="3" height="1.4"/>
	<rect x="331.9" y="234.9" width="3" height="1.4"/>
	<rect x="327.4" y="234.9" width="3" height="1.4"/>
	<rect x="323" y="234.9" width="3" height="1.4"/>
	<rect x="318.5" y="234.9" width="3" height="1.4"/>
	<rect x="331.9" y="231.9" width="3" height="1.4"/>
	<rect x="327.4" y="231.9" width="3" height="1.4"/>
	<rect x="323" y="231.9" width="3" height="1.4"/>
	<rect x="318.5" y="231.9" width="3" height="1.4"/>
	<rect x="309.6" y="252.6" width="3" height="1.4"/>
	<rect x="305.2" y="252.6" width="3" height="1.4"/>
	<rect x="309.6" y="249.7" width="3" height="1.4"/>
	<rect x="305.2" y="249.7" width="3" height="1.4"/>
	<rect x="309.6" y="246.7" width="3" height="1.4"/>
	<rect x="305.2" y="246.7" width="3" height="1.4"/>
	<rect x="309.6" y="243.8" width="3" height="1.4"/>
	<rect x="305.2" y="243.8" width="3" height="1.4"/>
	<rect x="309.6" y="240.8" width="3" height="1.4"/>
	<rect x="305.2" y="240.8" width="3" height="1.4"/>
	<rect x="309.6" y="237.8" width="3" height="1.4"/>
	<rect x="305.2" y="237.8" width="3" height="1.4"/>
	<rect x="309.6" y="234.9" width="3" height="1.4"/>
	<rect x="305.2" y="234.9" width="3" height="1.4"/>
	<rect x="331.9" y="228.9" width="3" height="1.4"/>
	<rect x="327.4" y="228.9" width="3" height="1.4"/>
	<rect x="323" y="228.9" width="3" height="1.4"/>
	<rect x="318.5" y="228.9" width="3" height="1.4"/>
	<rect x="331.9" y="226" width="3" height="1.4"/>
	<rect x="327.4" y="226" width="3" height="1.4"/>
	<rect x="323" y="226" width="3" height="1.4"/>
	<rect x="318.5" y="226" width="3" height="1.4"/>
	<rect x="331.9" y="223" width="3" height="1.4"/>
	<rect x="327.4" y="223" width="3" height="1.4"/>
	<rect x="323" y="223" width="3" height="1.4"/>
	<rect x="318.5" y="223" width="3" height="1.4"/>
	<rect x="331.9" y="220" width="3" height="1.4"/>
	<rect x="327.4" y="220" width="3" height="1.4"/>
	<rect x="323" y="220" width="3" height="1.4"/>
	<rect x="318.5" y="220" width="3" height="1.4"/>
	<rect x="318.5" y="259.3" width="7.4" height="1.4"/>
	<rect x="305.2" y="259.3" width="7.4" height="1.4"/>
	<rect x="327.4" y="259.3" width="7.4" height="1.4"/>
</g>
</svg>
