<?xml version="1.0" encoding="iso-8859-1"?>
<!-- Generator: Adobe Illustrator 19.0.0, SVG Export Plug-In . SVG Version: 6.00 Build 0)  -->
<svg version="1.1" id="Capa_1" xmlns="http://www.w3.org/2000/svg" xmlns:xlink="http://www.w3.org/1999/xlink" x="0px" y="0px"
	 viewBox="0 0 511 511" style="enable-background:new 0 0 511 511;" xml:space="preserve">
<g>
	<path d="M455,496V0H200v160H56v336H39.5v15H56h144h15h240h16.5v-15H455z M215,15h225v417H215V160V15z M200,175v257H71V175H200z
		 M71,496v-49h129v49H71z M215,496v-49h225v49H215z"/>
	<rect x="383.5" y="392" width="32" height="15"/>
	<rect x="335.5" y="392" width="32" height="15"/>
	<rect x="287.5" y="392" width="32" height="15"/>
	<rect x="239.5" y="392" width="32" height="15"/>
	<rect x="383.5" y="360" width="32" height="15"/>
	<rect x="335.5" y="360" width="32" height="15"/>
	<rect x="287.5" y="360" width="32" height="15"/>
	<rect x="239.5" y="360" width="32" height="15"/>
	<rect x="383.5" y="328" width="32" height="15"/>
	<rect x="335.5" y="328" width="32" height="15"/>
	<rect x="287.5" y="328" width="32" height="15"/>
	<rect x="239.5" y="328" width="32" height="15"/>
	<rect x="383.5" y="296" width="32" height="15"/>
	<rect x="335.5" y="296" width="32" height="15"/>
	<rect x="287.5" y="296" width="32" height="15"/>
	<rect x="239.5" y="296" width="32" height="15"/>
	<rect x="383.5" y="264" width="32" height="15"/>
	<rect x="335.5" y="264" width="32" height="15"/>
	<rect x="287.5" y="264" width="32" height="15"/>
	<rect x="239.5" y="264" width="32" height="15"/>
	<rect x="383.5" y="232" width="32" height="15"/>
	<rect x="335.5" y="232" width="32" height="15"/>
	<rect x="287.5" y="232" width="32" height="15"/>
	<rect x="239.5" y="232" width="32" height="15"/>
	<rect x="383.5" y="200" width="32" height="15"/>
	<rect x="335.5" y="200" width="32" height="15"/>
	<rect x="287.5" y="200" width="32" height="15"/>
	<rect x="239.5" y="200" width="32" height="15"/>
	<rect x="383.5" y="168" width="32" height="15"/>
	<rect x="335.5" y="168" width="32" height="15"/>
	<rect x="287.5" y="168" width="32" height="15"/>
	<rect x="239.5" y="168" width="32" height="15"/>
	<rect x="143.5" y="392" width="32" height="15"/>
	<rect x="95.5" y="392" width="32" height="15"/>
	<rect x="143.5" y="360" width="32" height="15"/>
	<rect x="95.5" y="360" width="32" height="15"/>
	<rect x="143.5" y="328" width="32" height="15"/>
	<rect x="95.5" y="328" width="32" height="15"/>
	<rect x="143.5" y="296" width="32" height="15"/>
	<rect x="95.5" y="296" width="32" height="15"/>
	<rect x="143.5" y="264" width="32" height="15"/>
	<rect x="95.5" y="264" width="32" height="15"/>
	<rect x="143.5" y="232" width="32" height="15"/>
	<rect x="95.5" y="232" width="32" height="15"/>
	<rect x="143.5" y="200" width="32" height="15"/>
	<rect x="95.5" y="200" width="32" height="15"/>
	<rect x="383.5" y="136" width="32" height="15"/>
	<rect x="335.5" y="136" width="32" height="15"/>
	<rect x="287.5" y="136" width="32" height="15"/>
	<rect x="239.5" y="136" width="32" height="15"/>
	<rect x="383.5" y="104" width="32" height="15"/>
	<rect x="335.5" y="104" width="32" height="15"/>
	<rect x="287.5" y="104" width="32" height="15"/>
	<rect x="239.5" y="104" width="32" height="15"/>
	<rect x="383.5" y="72" width="32" height="15"/>
	<rect x="335.5" y="72" width="32" height="15"/>
	<rect x="287.5" y="72" width="32" height="15"/>
	<rect x="239.5" y="72" width="32" height="15"/>
	<rect x="383.5" y="40" width="32" height="15"/>
	<rect x="335.5" y="40" width="32" height="15"/>
	<rect x="287.5" y="40" width="32" height="15"/>
	<rect x="239.5" y="40" width="32" height="15"/>
	<rect x="239.5" y="464" width="80" height="15"/>
	<rect x="95.5" y="464" width="80" height="15"/>
	<rect x="335.5" y="464" width="80" height="15"/>
</g>
<g>
</g>
<g>
</g>
<g>
</g>
<g>
</g>
<g>
</g>
<g>
</g>
<g>
</g>
<g>
</g>
<g>
</g>
<g>
</g>
<g>
</g>
<g>
</g>
<g>
</g>
<g>
</g>
<g>
</g>
</svg>
