<?xml version="1.0" encoding="utf-8"?>
<!-- Generator: Adobe Illustrator 18.0.0, SVG Export Plug-In . SVG Version: 6.00 Build 0)  -->
<!DOCTYPE svg PUBLIC "-//W3C//DTD SVG 1.1//EN" "http://www.w3.org/Graphics/SVG/1.1/DTD/svg11.dtd">
<svg version="1.1" id="Layer_1" xmlns="http://www.w3.org/2000/svg" xmlns:xlink="http://www.w3.org/1999/xlink" x="0px" y="0px"
	 viewBox="283.9 182.6 64 83.1" enable-background="new 283.9 182.6 64 83.1" xml:space="preserve">
<g transform="translate(1 1)">
	<g>
		<g>
			<path fill="#2F2F2F" d="M329.1,196.7c0.7-1.3,0.3-3.1-1.1-3.8c-1.3-0.7-3.1-0.3-3.8,1.1c-0.7,1.3-0.3,3.1,1.1,3.8
				C326.7,198.5,328.4,198.1,329.1,196.7z"/>
			<path fill="#2F2F2F" d="M335.1,203.2c1.3,0.7,3.1,0.3,3.8-1.1c0.7-1.3,0.3-3.1-1.1-3.8c-1.3-0.7-3.1-0.3-3.8,1.1
				C333.3,200.8,333.8,202.5,335.1,203.2z"/>
			<path fill="#2F2F2F" d="M322.5,256.7l5-19.7c0,0,0-0.1,0-0.1l6.1-13.7c1.3-0.6,2.5-1.6,3.3-3c1.1-2,1.2-4.3,0.3-6.3l2.6-4.7
				c2.7-2.3,4-4.4,5.4-6.8c0.5-0.9,0.9-1.9,1.1-2.9c1.9-6.3-0.8-13-6.5-16.2c-5.8-3.2-12.8-2-17.2,2.9c-0.7,0.7-1.4,1.6-1.9,2.5
				c-1.4,2.5-2.5,4.7-3,8.2l-2.6,4.7c-2.1,0.3-4.1,1.5-5.2,3.6c-0.8,1.4-1,2.9-0.8,4.4l-8.6,12.6c0,0.1-0.1,0.2-0.1,0.3l-13.8,14.3
				c-1.3,1.2-2.2,2.5-2.7,3.8c-1.6,3.4-1.1,6.6,1.3,8.6c0.1,0.1,0.1,0.1,0.2,0.1l2.6,1.4c2,1.1,4.4,0.5,5.7-1.3l14.6-20.7
				c0.1-0.1,0.2-0.3,0.2-0.5l3-3.3l5.1,0.2l2.7,3.9l-1.4,5c0,0,0,0.1,0,0.1l-10,23.2c-0.8,2.1-0.1,4.4,1.9,5.5l2.6,1.4
				c0.1,0.1,0.1,0.1,0.4,0.1c3,1,5.8-0.1,8-3.4C321.4,259.7,322,258.3,322.5,256.7z M318,222.4l-2.6-3.9l1.6-2.9
				c0.7-0.1,1.3-0.3,2-0.6l4.8,2.7c0.1,0.7,0.3,1.3,0.6,2l-1.6,2.9L318,222.4z M323.2,190.2c0.2-0.4,0.5-0.9,0.8-1.2l19.3,10.8
				c-0.1,0.4-0.4,0.9-0.6,1.3c-1.2,2.1-2.1,3.8-4.3,5.6l-5.3-2.9l-7.3-4.1l-5.3-2.9C321.2,194,322,192.2,323.2,190.2z M334.4,218.9
				c-0.6,1-1.4,1.7-2.4,2c-0.1,0-0.2,0-0.4,0c-0.8,0.2-1.9,0.2-3-0.4c-0.1,0-0.1-0.1-0.2-0.1c0,0-0.1-0.1-0.1-0.1c0,0,0,0,0,0
				c-0.1,0-0.1-0.1-0.2-0.1c0,0,0,0,0,0c-0.1-0.1-0.2-0.2-0.3-0.3c-0.3-0.2-0.5-0.5-0.7-0.9c0-0.1-0.1-0.2-0.2-0.2
				c-0.3-0.5-0.4-1-0.5-1.6c0-0.1,0-0.2,0-0.3c0-0.4,0-0.8,0.1-1.1c0-0.1,0.1-0.3,0.1-0.4c0,0,0,0,0,0c0-0.1,0-0.1,0.1-0.2
				c0,0,0,0,0,0c0-0.1,0-0.1,0.1-0.2c0-0.1,0.1-0.1,0.1-0.2c0.3-0.6,0.9-1.1,1.6-1.5c0.2-0.1,0.3-0.2,0.4-0.4
				c0.3-0.1,0.6-0.2,0.9-0.3c0.1,0,0.2,0,0.3,0.1c1.6-0.1,3.2,0.6,4,2.1c0.1,0.2,0.2,0.3,0.4,0.4
				C335.1,216.4,335.1,217.7,334.4,218.9z M332.3,210l1-3l3.5,2l-1.4,2.6c-0.6-0.5-1.1-0.8-1.7-1.1
				C333.2,210.3,332.8,210.1,332.3,210z M330.8,205.6l-1.5,4.3c-0.5,0.1-1,0.3-1.4,0.5l-4.8-2.7c-0.1-0.5-0.2-1-0.3-1.4l2.9-3.6
				L330.8,205.6L330.8,205.6z M325.4,212.3c-0.3,0.3-0.6,0.8-0.8,1.1c-0.2,0.4-0.5,0.8-0.5,1.2c0,0,0,0,0,0l-2.7-1.5c0,0,0,0,0,0
				c0.3-0.3,0.6-0.8,0.8-1.1c0.2-0.4,0.5-0.8,0.5-1.2c0,0,0,0,0,0L325.4,212.3C325.4,212.3,325.4,212.3,325.4,212.3z M344,197
				l-7.8-4.4l3.4-6C342.9,189,344.6,193,344,197z M337.1,185.2l-3.4,6l-7.8-4.4C329.1,184.3,333.4,183.7,337.1,185.2z M319.6,199.4
				l3.4,1.9l-1.9,2.5c-0.1-0.1-0.2-0.2-0.3-0.3c-0.3-0.3-0.7-0.6-1.1-0.9c-0.1,0-0.2-0.1-0.2-0.1c-0.4-0.2-0.8-0.5-1.2-0.5
				c0,0,0,0,0,0L319.6,199.4z M318.1,205c0,0,0.1,0.1,0.1,0.1c0.6,0.4,1.1,1,1.5,1.6c0.1,0.1,0.2,0.2,0.2,0.3
				c0.2,0.4,0.3,0.9,0.3,1.3c0,0.1,0,0.2,0,0.3c0,0.4,0,0.8-0.1,1.1c0,0.1-0.1,0.3-0.1,0.4c0,0,0,0,0,0c0,0.1,0,0.1-0.1,0.2
				c0,0,0,0,0,0c0,0.1,0,0.1-0.1,0.2c0,0.1-0.1,0.1-0.1,0.2c0,0.1-0.1,0.1-0.1,0.2c0,0-0.1,0.1-0.1,0.1c0,0,0,0,0,0
				c0,0.1-0.1,0.1-0.1,0.2c0,0,0,0,0,0c-0.1,0.1-0.2,0.2-0.3,0.3c-0.2,0.3-0.5,0.5-0.9,0.7c-0.1,0-0.2,0.1-0.2,0.2
				c-0.5,0.3-1,0.4-1.6,0.5c-0.1,0-0.2,0-0.3,0c-0.4,0-0.8,0-1.1-0.1c-0.1,0-0.3-0.1-0.4-0.1c0,0,0,0,0,0c-0.1,0-0.1,0-0.2-0.1
				c0,0,0,0,0,0c-0.1,0-0.1,0-0.2-0.1c-0.1,0-0.1-0.1-0.2-0.1c-1.1-0.6-1.7-1.6-1.8-2.3c-0.1-0.1-0.2-0.2-0.3-0.3
				c-0.3-1-0.1-2.1,0.4-3.1C313.6,204.5,316,203.8,318.1,205z M291.4,247.8c-0.5,0.7-1.3,0.9-2,0.5l-2.4-1.4c-1.5-1.1-1.6-3-0.5-5.1
				c0.6-1.1,1.3-2,2.2-3.1l13.1-13.7l1.8,1.5l1.7,1.5L291.4,247.8z M311,222c-0.4,0.1-0.8,0.2-1.1,0.5l-2.9,3.2l-3.5-2.9l6.9-10
				c0.6,0.8,1.3,1.5,2.3,2c0.4,0.2,0.9,0.4,1.3,0.6l-1.4,2.6c-0.3,0.5-0.2,1,0,1.4l1.9,2.8L311,222z M320.1,225.3l3.4,0.2
				c0.6,0,1.1-0.2,1.3-0.7l1.4-2.4c1.1,0.9,2.5,1.6,4.1,1.6l-4.9,11l-4.4-1.4l1.1-4.2c0.2-0.4,0.2-0.9-0.1-1.2L320.1,225.3z
				 M318.2,259.4c-1.3,2.1-3,3-4.7,2.4l-2.4-1.4c-0.7-0.4-1-1.2-0.7-2l9.6-22.2l4.4,1.4l-4.7,18.2
				C319.4,257.3,318.9,258.5,318.2,259.4z"/>
		</g>
	</g>
</g>
</svg>
