<?xml version="1.0" encoding="utf-8"?>
<!-- Generator: Adobe Illustrator 18.0.0, SVG Export Plug-In . SVG Version: 6.00 Build 0)  -->
<!DOCTYPE svg PUBLIC "-//W3C//DTD SVG 1.1//EN" "http://www.w3.org/Graphics/SVG/1.1/DTD/svg11.dtd">
<svg version="1.1" id="Layer_1" xmlns="http://www.w3.org/2000/svg" xmlns:xlink="http://www.w3.org/1999/xlink" x="0px" y="0px"
	 viewBox="288 196 64 88" enable-background="new 288 196 64 88" xml:space="preserve">
<g id="Layer_21">
</g>
<g id="Layer_20">
</g>
<g id="Layer_19">
</g>
<g id="Layer_18">
</g>
<g id="Layer_17">
</g>
<g id="Layer_16">
</g>
<g id="Layer_15">
</g>
<g id="Layer_14">
</g>
<g id="Layer_13">
</g>
<g id="Layer_12">
</g>
<g id="Layer_11">
	<g>
		<path fill="#2F2F2F" d="M331,246h-3v-6c0-1.2-0.8-2-2-2s-2,0.8-2,2v6h-8v-6c0-1.2-0.8-2-2-2s-2,0.8-2,2v6h-3c-2.8,0-5,2.2-5,5
			s2.2,5,5,5h13c1.2,0,2-0.8,2-2s-0.8-2-2-2h-13c-0.6,0-1-0.4-1-1s0.4-1,1-1h22c0.6,0,1,0.4,1,1s-0.4,1-1,1h-1c-1.2,0-2,0.8-2,2v12
			c0,1.2-0.8,2-2,2h-12c-1.2,0-2-0.8-2-2v-4c0-1.2-0.8-2-2-2s-2,0.8-2,2v4c0,3.4,2.6,6,6,6h4c0,4.4-3.6,8-8,8c-5.6,0-10-4.4-10-10
			s-4.4-10-10-10c-1.2,0-2,0.8-2,2s0.8,2,2,2c3.4,0,6,2.6,6,6c0,7.8,6.2,14,14,14c6.6,0,12-5.4,12-12h4c3.4,0,6-2.6,6-6v-10
			c2.2-0.4,4-2.4,4-5C336,248.2,333.8,246,331,246z"/>
		<path fill="#2F2F2F" d="M350,216c-3.4,0-6-2.6-6-6c0-7.8-6.2-14-14-14c-6.6,0-12,5.4-12,12h-4c-3.4,0-6,2.6-6,6v10
			c-2.2,0.4-4,2.4-4,5c0,2.8,2.2,5,5,5h22c2.8,0,5-2.2,5-5s-2.2-5-5-5h-13c-1.2,0-2,0.8-2,2s0.8,2,2,2h13c0.6,0,1,0.4,1,1
			s-0.4,1-1,1h-22c-0.6,0-1-0.4-1-1s0.4-1,1-1h1c1.2,0,2-0.8,2-2v-12c0-1.2,0.8-2,2-2h12c1.2,0,2,0.8,2,2v4c0,1.2,0.8,2,2,2
			s2-0.8,2-2v-4c0-3.4-2.6-6-6-6h-4c0-4.4,3.6-8,8-8c5.6,0,10,4.4,10,10s4.4,10,10,10c1.2,0,2-0.8,2-2S351.2,216,350,216z"/>
	</g>
</g>
<g id="Layer_10">
</g>
<g id="Layer_9">
</g>
<g id="Layer_8">
</g>
<g id="Layer_7">
</g>
<g id="Layer_6">
</g>
<g id="Layer_5">
</g>
<g id="trolley">
</g>
<g id="battery_x5F_charge">
</g>
<g id="diode">
</g>
</svg>
