<?xml version="1.0" encoding="utf-8"?>
<!-- Generator: Adobe Illustrator 19.2.1, SVG Export Plug-In . SVG Version: 6.00 Build 0)  -->
<svg version="1.1" xmlns="http://www.w3.org/2000/svg" xmlns:xlink="http://www.w3.org/1999/xlink" x="0px" y="0px"
	 viewBox="0 0 44 44" style="enable-background:new 0 0 44 44;" xml:space="preserve">
<style type="text/css">
	.st0{fill:#231F20;}
</style>
<g id="Layer_21">
</g>
<g id="Layer_20">
</g>
<g id="Layer_19">
</g>
<g id="Layer_18">
</g>
<g id="Layer_17">
</g>
<g id="Layer_16">
</g>
<g id="Layer_15">
</g>
<g id="Layer_14">
</g>
<g id="Layer_13">
</g>
<g id="Layer_12">
</g>
<g id="Layer_11">
	<g>
		<path d="M27.5,25H26v-3c0-0.6-0.4-1-1-1s-1,0.4-1,1v3h-4v-3c0-0.6-0.4-1-1-1s-1,0.4-1,1v3h-1.5c-1.4,0-2.5,1.1-2.5,2.5
			s1.1,2.5,2.5,2.5H23c0.6,0,1-0.4,1-1s-0.4-1-1-1h-6.5c-0.3,0-0.5-0.2-0.5-0.5s0.2-0.5,0.5-0.5h11c0.3,0,0.5,0.2,0.5,0.5
			S27.8,28,27.5,28H27c-0.6,0-1,0.4-1,1v6c0,0.6-0.4,1-1,1h-6c-0.6,0-1-0.4-1-1v-2c0-0.6-0.4-1-1-1s-1,0.4-1,1v2c0,1.7,1.3,3,3,3h2
			c0,2.2-1.8,4-4,4c-2.8,0-5-2.2-5-5s-2.2-5-5-5c-0.6,0-1,0.4-1,1s0.4,1,1,1c1.7,0,3,1.3,3,3c0,3.9,3.1,7,7,7c3.3,0,6-2.7,6-6h2
			c1.7,0,3-1.3,3-3v-5c1.1-0.2,2-1.2,2-2.5C30,26.1,28.9,25,27.5,25z"/>
		<path d="M37,10c-1.7,0-3-1.3-3-3c0-3.9-3.1-7-7-7c-3.3,0-6,2.7-6,6h-2c-1.7,0-3,1.3-3,3v5c-1.1,0.2-2,1.2-2,2.5
			c0,1.4,1.1,2.5,2.5,2.5h11c1.4,0,2.5-1.1,2.5-2.5S28.9,14,27.5,14H21c-0.6,0-1,0.4-1,1s0.4,1,1,1h6.5c0.3,0,0.5,0.2,0.5,0.5
			S27.8,17,27.5,17h-11c-0.3,0-0.5-0.2-0.5-0.5s0.2-0.5,0.5-0.5H17c0.6,0,1-0.4,1-1V9c0-0.6,0.4-1,1-1h6c0.6,0,1,0.4,1,1v2
			c0,0.6,0.4,1,1,1s1-0.4,1-1V9c0-1.7-1.3-3-3-3h-2c0-2.2,1.8-4,4-4c2.8,0,5,2.2,5,5s2.2,5,5,5c0.6,0,1-0.4,1-1S37.6,10,37,10z"/>
	</g>
</g>
<g id="Layer_10">
</g>
<g id="Layer_9">
</g>
<g id="Layer_8">
</g>
<g id="Layer_7">
</g>
<g id="Layer_6">
</g>
<g id="Layer_5">
</g>
<g id="trolley">
</g>
<g id="battery_x5F_charge">
</g>
<g id="diode">
</g>
</svg>
