<?xml version="1.0" encoding="utf-8"?>
<!-- Generator: Adobe Illustrator 18.0.0, SVG Export Plug-In . SVG Version: 6.00 Build 0)  -->
<!DOCTYPE svg PUBLIC "-//W3C//DTD SVG 1.1//EN" "http://www.w3.org/Graphics/SVG/1.1/DTD/svg11.dtd">
<svg version="1.1" id="Layer_1" xmlns="http://www.w3.org/2000/svg" xmlns:xlink="http://www.w3.org/1999/xlink" x="0px" y="0px"
	 viewBox="288 203.1 64 73.8" enable-background="new 288 203.1 64 73.8" xml:space="preserve">
<g>
	<g>
		<path fill="#2F2F2F" d="M350.8,242.5h-2.5V240h2.5c0.6,0,1.1-0.4,1.2-1.1c0.1-0.6-0.3-1.2-0.9-1.4l-23.7-7.1v-12.2l15,4.5h-12.5
			c-0.7,0-1.2,0.6-1.2,1.2s0.6,1.2,1.2,1.2h16v2.5h-2.5c-0.7,0-1.2,0.6-1.2,1.2s0.6,1.2,1.2,1.2h7.4c0.7,0,1.2-0.6,1.2-1.2
			s-0.6-1.2-1.2-1.2h-2.5v-2.5h2.5c0.6,0,1.1-0.4,1.2-1.1c0.1-0.6-0.3-1.2-0.9-1.4l-24.1-7.2l-5.8-11.8c-0.2-0.4-0.6-0.7-1.1-0.7h0
			c-0.5,0-0.9,0.3-1.1,0.7l-6.3,12.3c0,0,0,0,0,0c0,0.1,0,0.2-0.1,0.2c0,0.1,0,0.2,0,0.2c0,0,0,0,0,0v6.2h-14.8l12.7-3.7
			c0.7-0.2,1-0.9,0.8-1.5c-0.2-0.7-0.9-1-1.5-0.8l-20.9,6.2c-0.6,0.2-1,0.8-0.9,1.4c0.1,0.6,0.6,1.1,1.2,1.1h2.5v2.5h-2.5
			c-0.7,0-1.2,0.6-1.2,1.2s0.6,1.2,1.2,1.2h7.4c0.7,0,1.2-0.6,1.2-1.2s-0.6-1.2-1.2-1.2h-2.5v-2.5h18.5v12.3h-14.8l12.7-3.7
			c0.7-0.2,1-0.9,0.8-1.5c-0.2-0.7-0.9-1-1.5-0.8l-20.9,6.2c-0.6,0.2-1,0.8-0.9,1.4c0.1,0.6,0.6,1.1,1.2,1.1h2.5v2.5h-2.5
			c-0.7,0-1.2,0.6-1.2,1.2s0.6,1.2,1.2,1.2h7.4c0.7,0,1.2-0.6,1.2-1.2s-0.6-1.2-1.2-1.2h-2.5V240h18.1l-9.1,32h-4
			c-0.7,0-1.2,0.6-1.2,1.2v2.5c0,0.7,0.6,1.2,1.2,1.2c0.7,0,1.2-0.6,1.2-1.2v-1.2h3.7h0h32h0h3.7v1.2c0,0.7,0.6,1.2,1.2,1.2
			c0.7,0,1.2-0.6,1.2-1.2v-2.5c0-0.7-0.6-1.2-1.2-1.2h-4l-9.5-33.4V233l15,4.5h-12.5c-0.7,0-1.2,0.6-1.2,1.2s0.6,1.2,1.2,1.2h16v2.5
			h-2.5c-0.7,0-1.2,0.6-1.2,1.2s0.6,1.2,1.2,1.2h7.4c0.7,0,1.2-0.6,1.2-1.2S351.5,242.5,350.8,242.5z M305.6,272l4-14.1l8.1,5.1
			l-8.6,5.5c-0.6,0.4-0.7,1.1-0.4,1.7c0.2,0.4,0.6,0.6,1,0.6c0.2,0,0.5-0.1,0.7-0.2l9.6-6.1l11.8,7.5L305.6,272L305.6,272z
			 M333.9,270.5l-23.6-15l2.8-9.8l4.6,3l-4.6,3c-0.6,0.4-0.7,1.1-0.3,1.7c0.2,0.4,0.6,0.6,1,0.6c0.2,0,0.5-0.1,0.7-0.2l5.5-3.6
			l8.8,5.8l-5.8,3.7c-0.6,0.4-0.7,1.1-0.4,1.7c0.2,0.4,0.6,0.6,1,0.6c0.2,0,0.5-0.1,0.7-0.2l6-3.8L333.9,270.5z M329,253.1l-8.3-5.5
			c0,0,0,0,0,0l-6.8-4.5l0.9-3.2h7.7c0.7,0,1.2-0.6,1.2-1.2s-0.6-1.2-1.2-1.2h-7.4v-4.9h7.4c0.7,0,1.2-0.6,1.2-1.2s-0.6-1.2-1.2-1.2
			h-7.4v-4.9h7.4c0.7,0,1.2-0.6,1.2-1.2s-0.6-1.2-1.2-1.2h-7.4v-4.9h6.2c0.7,0,1.2-0.6,1.2-1.2s-0.6-1.2-1.2-1.2h-5.4l4.2-8.3
			l4.8,9.8v21.9c0,0.1,0,0.2,0,0.3l1.2,4.1l-3.1,2c-0.6,0.4-0.7,1.1-0.3,1.7c0.2,0.4,0.6,0.6,1,0.6c0.2,0,0.5-0.1,0.7-0.2l2.4-1.6
			L329,253.1z"/>
	</g>
</g>
</svg>
