<?xml version="1.0" encoding="utf-8"?>
<!-- Generator: Adobe Illustrator 19.2.1, SVG Export Plug-In . SVG Version: 6.00 Build 0)  -->
<svg version="1.1" xmlns="http://www.w3.org/2000/svg" xmlns:xlink="http://www.w3.org/1999/xlink" x="0px" y="0px"
	 viewBox="0 0 44 44" style="enable-background:new 0 0 44 44;" xml:space="preserve">
<style type="text/css">
	.st0{fill:#231F20;}
</style>
<g id="Layer_21">
</g>
<g id="Layer_20">
</g>
<g id="Layer_19">
</g>
<g id="Layer_18">
</g>
<g id="Layer_17">
</g>
<g id="Layer_16">
	<g>
		<circle cx="22" cy="22" r="1"/>
		<path d="M41,0H3C1.3,0,0,1.3,0,3v38c0,1.7,1.3,3,3,3h38c1.7,0,3-1.3,3-3V3C44,1.3,42.7,0,41,0z M42,41c0,0.6-0.4,1-1,1H3
			c-0.6,0-1-0.4-1-1V3c0-0.6,0.4-1,1-1h38c0.6,0,1,0.4,1,1V41z"/>
		<path d="M26.3,7.6c-0.5-0.2-1.1,0.1-1.2,0.7c-0.2,0.5,0.1,1.1,0.7,1.2C31.2,11.2,35,16.3,35,22c0,6.8-5.3,12.4-12,13v-2
			c0-0.6-0.4-1-1-1s-1,0.4-1,1v3c0,0.6,0.4,1,1,1c8.3,0,15-6.7,15-15C37,15.4,32.6,9.5,26.3,7.6z"/>
		<path d="M18.3,34.5C12.8,32.8,9,27.7,9,22c0-6.8,5.3-12.4,12-13v2c0,0.6,0.4,1,1,1s1-0.4,1-1V8c0-0.6-0.4-1-1-1
			C13.7,7,7,13.7,7,22c0,6.6,4.4,12.5,10.7,14.4c0.1,0,0.2,0,0.3,0c0.4,0,0.8-0.3,1-0.7C19.1,35.2,18.8,34.6,18.3,34.5z"/>
		<path d="M12,22c0,1.7,1.3,3,3,3s3-1.3,3-3s-1.3-3-3-3S12,20.3,12,22z M16,22c0,0.6-0.4,1-1,1s-1-0.4-1-1s0.4-1,1-1S16,21.4,16,22z
			"/>
		<path d="M32,22c0-1.7-1.3-3-3-3s-3,1.3-3,3s1.3,3,3,3S32,23.7,32,22z M28,22c0-0.6,0.4-1,1-1s1,0.4,1,1s-0.4,1-1,1S28,22.6,28,22z
			"/>
	</g>
</g>
<g id="Layer_15">
</g>
<g id="Layer_14">
</g>
<g id="Layer_13">
</g>
<g id="Layer_12">
</g>
<g id="Layer_11">
</g>
<g id="Layer_10">
</g>
<g id="Layer_9">
</g>
<g id="Layer_8">
</g>
<g id="Layer_7">
</g>
<g id="Layer_6">
</g>
<g id="Layer_5">
</g>
<g id="trolley">
</g>
<g id="battery_x5F_charge">
</g>
<g id="diode">
</g>
</svg>
