<?xml version="1.0" encoding="utf-8"?>
<!-- Generator: Adobe Illustrator 18.0.0, SVG Export Plug-In . SVG Version: 6.00 Build 0)  -->
<!DOCTYPE svg PUBLIC "-//W3C//DTD SVG 1.1//EN" "http://www.w3.org/Graphics/SVG/1.1/DTD/svg11.dtd">
<svg version="1.1" id="Layer_1" xmlns="http://www.w3.org/2000/svg" xmlns:xlink="http://www.w3.org/1999/xlink" x="0px" y="0px"
	 viewBox="288 196.4 64 87.3" enable-background="new 288 196.4 64 87.3" xml:space="preserve">
<g>
	<g>
		<g>
			<path fill="#2F2F2F" d="M312.7,248.7c0.1,0,0.2,0,0.3,0l14.5-2.9c0.8-0.2,1.3-0.9,1.1-1.7c-0.2-0.8-0.9-1.3-1.7-1.1l-5.5,1.1
				v-5.5c0-0.8-0.7-1.5-1.5-1.5c-0.8,0-1.5,0.7-1.5,1.5v6.1l-6.1,1.2c-0.8,0.2-1.3,0.9-1.1,1.7C311.4,248.2,312,248.7,312.7,248.7z"
				/>
			<path fill="#2F2F2F" d="M312.7,260.4c0.1,0,0.2,0,0.3,0l14.5-2.9c0.8-0.2,1.3-0.9,1.1-1.7c-0.2-0.8-0.9-1.3-1.7-1.1l-14.5,2.9
				c-0.8,0.2-1.3,0.9-1.1,1.7C311.4,259.9,312,260.4,312.7,260.4z"/>
			<path fill="#2F2F2F" d="M320,234.2c4.8,0,8.7-3.9,8.7-8.7s-3.9-8.7-8.7-8.7s-8.7,3.9-8.7,8.7C311.3,230.3,315.2,234.2,320,234.2z
				 M320,219.6c3.2,0,5.8,2.6,5.8,5.8c0,3.2-2.6,5.8-5.8,5.8s-5.8-2.6-5.8-5.8C314.2,222.2,316.8,219.6,320,219.6z"/>
			<path fill="#2F2F2F" d="M317.6,207.9l4.4-1.7l-1.9,5.8c-0.3,0.8,0.2,1.6,0.9,1.8c0.2,0.1,0.3,0.1,0.5,0.1c0.6,0,1.2-0.4,1.4-1
				l2.9-8.7c0.2-0.5,0-1.1-0.4-1.5c-0.4-0.4-1-0.5-1.5-0.3l-4.4,1.7l1.9-5.8c0.3-0.8-0.2-1.6-0.9-1.8c-0.8-0.3-1.6,0.2-1.8,0.9
				l-2.9,8.7c-0.2,0.5,0,1.1,0.4,1.5C316.5,208,317.1,208.1,317.6,207.9z"/>
			<path fill="#2F2F2F" d="M312.7,254.5c0.1,0,0.2,0,0.3,0l14.5-2.9c0.8-0.2,1.3-0.9,1.1-1.7c-0.2-0.8-0.9-1.3-1.7-1.1l-14.5,2.9
				c-0.8,0.2-1.3,0.9-1.1,1.7C311.4,254.1,312,254.5,312.7,254.5z"/>
			<path fill="#2F2F2F" d="M351.6,199.8c-0.5-0.6-1.4-0.7-2-0.2l-10.2,8.7c-0.5,0.4-0.6,1-0.4,1.6c0.2,0.6,0.8,0.9,1.4,0.9h3.1
				l-11.3,9c-0.6,0.5-0.7,1.4-0.2,2c0.3,0.4,0.7,0.5,1.1,0.5c0.3,0,0.6-0.1,0.9-0.3l14.5-11.6c0.5-0.4,0.7-1,0.5-1.6
				c-0.2-0.6-0.8-1-1.4-1h-3.3l7.2-6.2C352.1,201.3,352.2,200.4,351.6,199.8z"/>
			<path fill="#2F2F2F" d="M336,274.9h-14.5c0-0.8-0.7-1.5-1.5-1.5s-1.5,0.7-1.5,1.5H304c-2.4,0-4.4,1.9-4.4,4.4v2.9
				c0,0.8,0.7,1.5,1.5,1.5s1.5-0.7,1.5-1.5v-2.9c0-0.7,0.5-1.5,1.5-1.5h32c0.9,0,1.5,0.6,1.5,1.5v2.9c0,0.8,0.7,1.5,1.5,1.5
				s1.5-0.7,1.5-1.5v-2.9C340.4,276.8,338.5,274.9,336,274.9z"/>
			<path fill="#2F2F2F" d="M312.7,266.2c0.1,0,0.2,0,0.3,0l14.5-2.9c0.8-0.2,1.3-0.9,1.1-1.7c-0.2-0.8-0.9-1.3-1.7-1.1l-14.5,2.9
				c-0.8,0.2-1.3,0.9-1.1,1.7C311.4,265.7,312,266.2,312.7,266.2z"/>
			<path fill="#2F2F2F" d="M312.7,272c0.1,0,0.2,0,0.3,0l14.5-2.9c0.8-0.2,1.3-0.9,1.1-1.7c-0.2-0.8-0.9-1.3-1.7-1.1l-14.5,2.9
				c-0.8,0.2-1.3,0.9-1.1,1.7C311.4,271.5,312,272,312.7,272z"/>
			<path fill="#2F2F2F" d="M299.6,207.5l9.1,10.2c0.5,0.6,1.5,0.7,2.1,0.1c0.6-0.5,0.7-1.5,0.1-2.1l-11.6-13.1
				c-0.4-0.4-1-0.6-1.6-0.4c-0.6,0.2-0.9,0.8-0.9,1.4v11l-6.2-6.2c-0.6-0.6-1.5-0.6-2.1,0c-0.6,0.6-0.6,1.5,0,2.1l8.7,8.7
				c0.3,0.3,0.7,0.4,1,0.4c0.2,0,0.4,0,0.6-0.1c0.5-0.2,0.9-0.8,0.9-1.3V207.5z"/>
		</g>
	</g>
</g>
</svg>
