<?xml version="1.0" encoding="utf-8"?>
<!-- Generator: Adobe Illustrator 18.0.0, SVG Export Plug-In . SVG Version: 6.00 Build 0)  -->
<!DOCTYPE svg PUBLIC "-//W3C//DTD SVG 1.1//EN" "http://www.w3.org/Graphics/SVG/1.1/DTD/svg11.dtd">
<svg version="1.1" id="Layer_1" xmlns="http://www.w3.org/2000/svg" xmlns:xlink="http://www.w3.org/1999/xlink" x="0px" y="0px"
	 viewBox="0 0 129 156" enable-background="new 0 0 129 156" xml:space="preserve">
<g id="Layer_x0020_1">
	<path fill="#FFC527" d="M21.7,0H127h1.3h0.7l0,0v2v12.5h-3.3V3.3h-102v11.2l0,0H23h-2.6h-0.7l0,0V2V0l0,0h0.7H21.7z M129,140.2V154
		v1.3v0.7h-0.7H127H21.7h-1.3h-0.7v-0.7V154V75.7l0,0h0.7H23h0.7l0,0v77h102v-12.5H129z"/>
	<g id="_731463936">
		<g id="Layer_21">
		</g>
		<g id="Layer_20">
		</g>
		<g id="Layer_19">
		</g>
		<g id="Layer_18">
		</g>
		<g id="Layer_17">
		</g>
		<g id="Layer_16">
		</g>
		<g id="Layer_15">
		</g>
		<g id="Layer_14">
		</g>
		<g id="Layer_13">
		</g>
		<g id="Layer_12">
		</g>
		<g id="Layer_11">
		</g>
		<g id="Layer_10">
		</g>
		<g id="Layer_9">
		</g>
		<g id="Layer_8">
		</g>
		<g id="Layer_7">
		</g>
		<g id="Layer_6">
			<g>
				<path fill="#FFC527" d="M34.9,39.5c0,0-0.7-0.7-1.3-0.7h-9.9l8.6-18.4c0,0,0-0.7,0-1.3c-0.7,0-0.7,0-1.3,0H16.5
					c-1.3,0-1.3,0-1.3,1.3c0,0.7,0,1.3,1.3,1.3H29l-8.6,18.4c0,0,0,0.7,0,1.3c0.7,0,0.7,0,1.3,0h9.2l-19.1,29l4.6-19.1
					c0,0,0-0.7-0.7-0.7c0-0.7-0.7-0.7-0.7-0.7H3.3l8.6-29.6c0.7-0.7,0-1.3-0.7-1.3c-0.7-0.7-1.3,0-2,0.7L0,50.7c0,0.7,0,0.7,0,1.3
					c0.7,0,0.7,0.7,1.3,0.7h11.8L7.9,76.4c0,0.7,0,1.3,0.7,2c0.7,0,0.7,0,0.7,0c0.7,0,1.3-0.7,1.3-0.7l24.4-36.2
					C34.9,40.8,34.9,40.2,34.9,39.5z"/>
				<path fill="#FFC527" d="M11.2,31.6L6.6,44.1c0,0.7,0.7,1.3,1.3,2l0,0c0.7,0,1.3-0.7,1.3-1.3l3.9-11.8c0.7-0.7,0-1.3-0.7-2
					C11.9,30.9,11.2,30.9,11.2,31.6z"/>
			</g>
		</g>
		<g id="Layer_5">
		</g>
		<g id="trolley">
		</g>
		<g id="battery_charge">
		</g>
		<g id="diode">
		</g>
	</g>
</g>
</svg>
